<svg xmlns="http://www.w3.org/2000/svg" width="700" height="700"
     viewBox="0 0 700 700">
    <defs>
        <style>
            .cls-1,.cls-11,.cls-2,.cls-5,.cls-7,.cls-9{fill:none;}.cls-11,.cls-2,.cls-3,.cls-4,.cls-5,.cls-6,.cls-7,.cls-8,.cls-9{stroke:#005a5a;}.cls-2,.cls-3,.cls-4{stroke-linecap:round;stroke-linejoin:round;}.cls-11,.cls-2,.cls-3,.cls-4{stroke-width:0.6px;}.cls-3,.cls-4{fill:#fff;}.cls-3{fill-rule:evenodd;}.cls-5,.cls-8{stroke-miterlimit:10;}.cls-5{stroke-dasharray:10
            6;}.cls-14,.cls-6,.cls-8{fill:#005a5a;}.cls-7{stroke-width:4px;}.cls-10{clip-path:url(#clip-path);}.cls-12{clip-path:url(#clip-path-2);}.cls-13{clip-path:url(#clip-path-3);}
        </style>
        <clipPath id="clip-path">
            <rect class="cls-1" x="462" y="219" width="42" height="42"/>
        </clipPath>
        <clipPath id="clip-path-2">
            <rect class="cls-1" x="517" y="272" width="42" height="42"/>
        </clipPath>
        <clipPath id="clip-path-3">
            <rect class="cls-1" x="456" y="324" width="49.07" height="48"/>
        </clipPath>
    </defs>
    <g id="мебель">
        <path class="cls-2" d="M376.5,256.5h36v-89h-36v89Z"/>
        <path class="cls-2"
              d="M398.84,212.76a1.71,1.71,0,0,0,.71-.08,1.66,1.66,0,0,0,.62-.35,1.73,1.73,0,0,0,.42-.58,1.71,1.71,0,0,0,0-1.4,1.83,1.83,0,0,0-.42-.58,1.66,1.66,0,0,0-.62-.35,1.71,1.71,0,0,0-.71-.08,1.84,1.84,0,0,0-.94.28,1.81,1.81,0,0,0-.66.74,1.14,1.14,0,0,1-.9.72.9.9,0,0,1-.5-.14.88.88,0,0,1-.35-.39l-.14-.33-4-10.7a.93.93,0,0,0-1.07-.51,1,1,0,0,0-.54.34,1,1,0,0,0-.2.6v22.44a1,1,0,0,0,.21.59,1,1,0,0,0,.53.33,1,1,0,0,0,.63-.07.94.94,0,0,0,.44-.44L395,212.66"/>
        <path class="cls-2" d="M398.5,205.5v-11"/>
        <path class="cls-2" d="M398.5,229.5v-11"/>
        <line class="cls-2" x1="378.5" y1="256.5" x2="378.5" y2="167.5"/>
        <line class="cls-2" x1="376.5" y1="236.5" x2="378.5" y2="236.5"/>
        <line class="cls-2" x1="376.5" y1="211.5" x2="378.5" y2="211.5"/>
        <line class="cls-2" x1="376.5" y1="187.5" x2="378.5" y2="187.5"/>
        <path class="cls-2"
              d="M431.15,177.6h25.51v5.59a3.76,3.76,0,0,1-1,2.61,3.48,3.48,0,0,1-2.51,1.08H434.7a3.5,3.5,0,0,1-2.51-1.08,3.81,3.81,0,0,1-1-2.61Z"/>
        <path class="cls-2" d="M432.31,186.37l1.94.51h18.51l2.74-.51v21a11.6,11.6,0,0,1-23.19,0Z"/>
        <path class="cls-2"
              d="M440.41,190.36h7a4.69,4.69,0,0,1,3.28,1.32,4.43,4.43,0,0,1,1.36,3.18v12.63a7.31,7.31,0,0,1-5.29,6.92,7.78,7.78,0,0,1-2.2.29h-1.25a7.71,7.71,0,0,1-2.19-.29,7.31,7.31,0,0,1-5.3-6.92V194.91a4.53,4.53,0,0,1,.34-1.74,4.46,4.46,0,0,1,1-1.47,4.67,4.67,0,0,1,3.28-1.34Z"/>
        <path class="cls-2"
              d="M443.7,193.23a2.71,2.71,0,0,1,1.51.46,2.67,2.67,0,0,1,1,1.22,2.76,2.76,0,0,1,.16,1.58,2.81,2.81,0,0,1-.75,1.41,2.77,2.77,0,0,1-3,.59,2.73,2.73,0,0,1-.89-4.46,2.71,2.71,0,0,1,1.94-.8Z"/>
        <path class="cls-2"
              d="M441.43,180.27a1.68,1.68,0,0,1,.95.28,1.68,1.68,0,0,1,.74,1.74,1.66,1.66,0,0,1-1.34,1.34,1.68,1.68,0,0,1-1.74-.74,1.68,1.68,0,0,1-.28-.95,1.59,1.59,0,0,1,.13-.64,1.65,1.65,0,0,1,.9-.9,1.59,1.59,0,0,1,.64-.13Z"/>
        <path class="cls-2"
              d="M446,180.9a1.07,1.07,0,0,1,.6.19,1,1,0,0,1,.39.48,1,1,0,0,1,.05.61,1.05,1.05,0,0,1-.29.55,1.11,1.11,0,0,1-.55.28,1.06,1.06,0,0,1-1.09-.47,1.13,1.13,0,0,1-.17-.6,1.07,1.07,0,0,1,.32-.73,1.05,1.05,0,0,1,.74-.31Z"/>
        <path class="cls-2"
              d="M472.07,178.25h37.49v9.08a18.6,18.6,0,0,1-1.21,6.81,18.08,18.08,0,0,1-16.72,11.6H490a17.92,17.92,0,0,1-12.69-5.36,18.21,18.21,0,0,1-5.23-12.82Z"/>
        <path class="cls-2" d="M474.57,185.75h32.49v.5a16.25,16.25,0,1,1-32.49,0Z"/>
        <path class="cls-2" d="M477.07,180.75h7.49"/>
        <path class="cls-2" d="M477.07,183.25h7.49"/>
        <path class="cls-3"
              d="M489.56,183.49a6.42,6.42,0,0,0,3.75,3.15v3.75a2.54,2.54,0,0,0-1,.85,1.21,1.21,0,0,1-.84.35A2.08,2.08,0,0,1,490,191a1.35,1.35,0,0,1-.4-1.46Z"/>
        <path class="cls-3"
              d="M489.52,181.79l1-.76a1.2,1.2,0,0,1,.4-.22,1.35,1.35,0,0,1,.45-.05,1.26,1.26,0,0,1,.43.13,1,1,0,0,1,.35.29c.71.95,3.07,4.19,1.56,5.31s-3.87-2.14-4.58-3.09A1.31,1.31,0,0,1,489,183a1.42,1.42,0,0,1,0-.46,1.18,1.18,0,0,1,.19-.41A1.24,1.24,0,0,1,489.52,181.79Z"/>
        <path class="cls-2" d="M492.06,183.25V182h-1.25v1.25Z"/>
        <path class="cls-2" d="M521,178H626v46.11H521Z"/>
        <path class="cls-2" d="M608.86,202.18a1.55,1.55,0,1,1,1.55-1.55A1.54,1.54,0,0,1,608.86,202.18Z"/>
        <path class="cls-2"
              d="M621.09,191.4a10.46,10.46,0,0,0-10.45-10.46H543.82a20.12,20.12,0,0,0-20.12,20.12h0a20.12,20.12,0,0,0,20.12,20.11h66.82a10.45,10.45,0,0,0,10.45-10.46Z"/>
        <g id="Раковина">
            <path class="cls-2" d="M602.66,224H591v35h35V224Z"/>
            <path class="cls-2" d="M617.39,250.54a12.69,12.69,0,1,1,0-17.95A12.7,12.7,0,0,1,617.39,250.54Z"/>
            <path class="cls-2" d="M613.64,248.53a9.86,9.86,0,1,1,0-13.94A9.86,9.86,0,0,1,613.64,248.53Z"/>
            <path class="cls-2"
                  d="M609.79,241.46a1.76,1.76,0,0,1-1.72,1.55,1.76,1.76,0,0,1-1.16-.44,1.73,1.73,0,0,1-.58-1.1,1.74,1.74,0,0,1,1.73-1.54,1.7,1.7,0,0,1,1.15.43,1.78,1.78,0,0,1,.58,1.1Z"/>
            <path class="cls-4"
                  d="M617.63,240a8,8,0,0,0-2.06,3h-1.9c-.34-.29-.68-.42-.93-.65a1.46,1.46,0,0,1-.46-.9,1.29,1.29,0,0,1,.08-.52,1.31,1.31,0,0,1,.28-.45,1.34,1.34,0,0,1,.45-.29,2.35,2.35,0,0,0,.52-.19Z"/>
            <path class="cls-4"
                  d="M619.46,240.15l.57.78a.79.79,0,0,1,.17.31.83.83,0,0,1,0,.35,1,1,0,0,1-.1.34.85.85,0,0,1-.22.28c-.74.54-3.23,2.37-4.09,1.22s1.64-3,2.38-3.57a.9.9,0,0,1,1.24.29Z"/>
        </g>
        <g id="Раковина-2" data-name="Раковина">
            <path class="cls-2" d="M614.34,292H626V259H591v33Z"/>
            <rect class="cls-2" x="602" y="267" width="12" height="8" transform="translate(1216 542) rotate(-180)"/>
            <polyline class="cls-2" points="603 282 614.07 282 602.67 278.2 614.07 274.67"/>
        </g>
        <g id="Раковина-3" data-name="Раковина">
            <path class="cls-2" d="M602.66,292H591v28h35V292Z"/>
            <line class="cls-2" x1="593" y1="292" x2="593" y2="320"/>
        </g>
    </g>
    <g id="пунктир">
        <line class="cls-5" x1="307.5" y1="322" x2="307.5" y2="204"/>
        <line class="cls-5" x1="309" y1="263.5" x2="384" y2="263.5"/>
        <line class="cls-5" x1="453" y1="320.5" x2="307" y2="320.5"/>
    </g>
    <g id="стены_внутренние" data-name="стены внутренние">
        <rect class="cls-6" x="300.5" y="162.5" width="7" height="43"/>
        <polygon class="cls-6"
                 points="376.5 256.5 412.5 256.5 412.5 163.5 419.5 163.5 419.5 256.5 461.5 256.5 461.5 263.5 376.5 263.5 376.5 256.5"/>
        <polygon class="cls-6"
                 points="504.5 320.5 513.5 320.5 513.5 312.5 520.5 312.5 520.5 320.5 640.5 320.5 640.5 327.5 504.5 327.5 504.5 320.5"/>
        <polyline class="cls-7" points="417 176 628 176 628 324"/>
        <polygon class="cls-6"
                 points="520.5 162.5 520.5 272.5 513.5 272.5 513.5 263.5 502.5 263.5 502.5 256.5 512.5 256.5 512.5 162.5 520.5 162.5"/>
    </g>
    <g id="стены_фасад" data-name="стены фасад">
        <rect class="cls-8" x="300.5" y="154.5" width="11" height="13"/>
        <polygon class="cls-8"
                 points="649.5 327.5 649.5 136.5 571.5 136.5 571.5 154.5 369.5 154.5 369.5 167.5 584.5 167.5 584.5 149.5 636.5 149.5 636.5 327.5 649.5 327.5"/>
    </g>
    <g id="двери">
        <g id="Дверь">
            <path class="cls-7" d="M315,101v59h-6m57,0h4"/>
            <path class="cls-9" d="M366.55,160.08c0-18-9.41-57.91-51.75-57.91"/>
        </g>
        <g class="cls-10">
            <path class="cls-11" d="M504,261h-4V219m-38,42h3.23"/>
            <path class="cls-11" d="M499.8,220.08c-29.21,0-35.7,28.18-35.7,40.92"/>
        </g>
        <g class="cls-12">
            <path class="cls-11" d="M517,314v-4h42m-42-38v3.23"/>
            <path class="cls-11" d="M557.92,309.8c0-29.21-28.18-35.7-40.92-35.7"/>
        </g>
        <g class="cls-13">
            <path class="cls-11" d="M460.72,372V324H456m45.29,0h3.78"/>
            <path class="cls-11" d="M502.61,324c0,14.56-7.58,46.77-41.7,46.77"/>
        </g>
    </g>
    <g id="текст">
        <path class="cls-14"
              d="M329.57,208.41h6.92v2.16H325.87V209l4.06-3.56a40,40,0,0,0,3.25-3,2.51,2.51,0,0,0,.69-1.67,2,2,0,0,0-.71-1.59,2.82,2.82,0,0,0-2-.63,2.76,2.76,0,0,0-2.94,2.58H326a5.17,5.17,0,0,1,1.69-3.46,5.31,5.31,0,0,1,3.63-1.28,5,5,0,0,1,3.51,1.23,4,4,0,0,1,1.33,3.05,3.58,3.58,0,0,1-.21,1.21,6.09,6.09,0,0,1-.46,1,6.5,6.5,0,0,1-.94,1.14c-.46.47-.84.85-1.14,1.12s-.83.74-1.59,1.39l-2.2,1.9Z"/>
        <path class="cls-14"
              d="M339.36,208.38a1.45,1.45,0,0,1,1.05-.39,1.49,1.49,0,0,1,1.06.39,1.32,1.32,0,0,1,.42,1,1.36,1.36,0,0,1-.42,1,1.46,1.46,0,0,1-1.06.4,1.42,1.42,0,0,1-1.05-.4,1.39,1.39,0,0,1-.41-1A1.35,1.35,0,0,1,339.36,208.38Z"/>
        <path class="cls-14"
              d="M352.53,203.23a3.4,3.4,0,0,1,1.73,1.32,3.76,3.76,0,0,1,.61,2.14,3.55,3.55,0,0,1-1.49,3,6.94,6.94,0,0,1-7.56,0,3.58,3.58,0,0,1-1.49-3,3.76,3.76,0,0,1,.61-2.14,3.4,3.4,0,0,1,1.73-1.32,3,3,0,0,1-1.4-1.18,3.34,3.34,0,0,1-.5-1.8,3.44,3.44,0,0,1,1.38-2.83,6,6,0,0,1,6.9,0,3.44,3.44,0,0,1,1.38,2.83,3.34,3.34,0,0,1-.5,1.8A3,3,0,0,1,352.53,203.23Zm-2.92,5.44a3.74,3.74,0,0,0,2.19-.57,1.86,1.86,0,0,0,.81-1.61q0-2.16-3-2.16c-2,0-3,.72-3,2.16a1.86,1.86,0,0,0,.81,1.61A3.79,3.79,0,0,0,349.61,208.67Zm0-10.2a2.94,2.94,0,0,0-1.9.55,1.85,1.85,0,0,0-.68,1.51c0,1.23.86,1.84,2.58,1.84s2.56-.61,2.56-1.84a1.85,1.85,0,0,0-.68-1.51A2.88,2.88,0,0,0,349.61,198.47Z"/>
        <path class="cls-14" d="M317.93,218.49v8.4h-1.36v-7.11h-4.31v7.11h-1.35v-8.4h7Z"/>
        <path class="cls-14"
              d="M323.42,220.14a2.82,2.82,0,0,1,2.18,1,3.63,3.63,0,0,1,.86,2.48,3.59,3.59,0,0,1-.86,2.47,2.78,2.78,0,0,1-2.19,1,2.57,2.57,0,0,1-2.3-1.25v4.11h-1.36v-9.6h1.36v1.12A2.59,2.59,0,0,1,323.42,220.14Zm-.3,5.59a1.84,1.84,0,0,0,1.42-.6,2.45,2.45,0,0,0,0-3.09,1.84,1.84,0,0,0-1.42-.6,1.94,1.94,0,0,0-1.45.6,2.18,2.18,0,0,0-.57,1.55,2.14,2.14,0,0,0,.57,1.54A1.94,1.94,0,0,0,323.12,225.73Z"/>
        <path class="cls-14" d="M332.36,220.29H334v6.6H332.6v-2.76l.09-2.09-3.27,4.85h-1.59v-6.6h1.35v2.76l-.08,2.07Z"/>
        <path class="cls-14"
              d="M341.41,226.89h-1.62l-1.59-2.37-1.54,2.37H335l2.36-3.4-2.23-3.2h1.62l1.46,2.2,1.42-2.2h1.63l-2.23,3.22Z"/>
        <path class="cls-14"
              d="M345.23,220.14a3.38,3.38,0,0,1,3.42,3.45,3.34,3.34,0,0,1-1,2.46,3.46,3.46,0,0,1-4.86-4.92A3.34,3.34,0,0,1,345.23,220.14Zm1.46,1.9a2.08,2.08,0,0,0-2.92,0,2.33,2.33,0,0,0,0,3.09,2,2,0,0,0,1.47.6,2,2,0,0,0,1.46-.6,2.11,2.11,0,0,0,.59-1.54A2.15,2.15,0,0,0,346.69,222Z"/>
        <path class="cls-14"
              d="M359.9,226.89h-1.74l-3.12-3v3h-1.35v-3l-3.12,3h-1.74l3.48-3.47-3.23-3.13h1.75l2.86,2.86v-2.86H355v2.86l2.86-2.86h1.75l-3.23,3.13Z"/>
        <path class="cls-14"
              d="M365.45,220.29h1.35v6.6h-1.35v-1.11a2.58,2.58,0,0,1-2.31,1.25,2.78,2.78,0,0,1-2.19-1,4,4,0,0,1,0-4.95,2.81,2.81,0,0,1,2.17-1,2.6,2.6,0,0,1,2.32,1.27Zm-2,5.44a1.91,1.91,0,0,0,1.45-.6,2.11,2.11,0,0,0,.58-1.54,2.14,2.14,0,0,0-.58-1.55,1.91,1.91,0,0,0-1.45-.6,1.81,1.81,0,0,0-1.41.6,2.41,2.41,0,0,0,0,3.09A1.81,1.81,0,0,0,363.43,225.73Z"/>
        <path class="cls-14"
              d="M370.71,220.29H374v6.6h-1.36V224.5h-1.31l-1.71,2.39H368l1.93-2.49a1.84,1.84,0,0,1-1.6-1.91,2,2,0,0,1,.67-1.65A2.58,2.58,0,0,1,370.71,220.29Zm.11,3.09h1.85v-1.87h-1.88q-1.11,0-1.11,1C369.68,223.08,370.06,223.38,370.82,223.38Z"/>
        <path class="cls-14"
              d="M384.59,283.21a3.33,3.33,0,0,1,1.67,1.28,4.07,4.07,0,0,1-.82,5.19,5.78,5.78,0,0,1-3.71,1.13,6,6,0,0,1-3.74-1.14,4.53,4.53,0,0,1-1.76-3.28h2.28c.32,1.52,1.39,2.28,3.2,2.28a3.23,3.23,0,0,0,2.12-.61,2.06,2.06,0,0,0,.74-1.67c0-1.33-.89-2-2.66-2H380v-2h1.5c1.75,0,2.62-.59,2.62-1.78a1.91,1.91,0,0,0-.7-1.55,2.94,2.94,0,0,0-1.94-.59,2.58,2.58,0,0,0-2.8,2.1h-2.28a4.56,4.56,0,0,1,1.68-3.17,5.55,5.55,0,0,1,3.46-1.07,5.33,5.33,0,0,1,3.48,1.13,3.55,3.55,0,0,1,1.38,2.87,3.2,3.2,0,0,1-.48,1.74A2.93,2.93,0,0,1,384.59,283.21Z"/>
        <path class="cls-14"
              d="M389.36,288.38a1.45,1.45,0,0,1,1.05-.39,1.49,1.49,0,0,1,1.06.39,1.32,1.32,0,0,1,.42,1,1.36,1.36,0,0,1-.42,1,1.46,1.46,0,0,1-1.06.4,1.42,1.42,0,0,1-1.05-.4,1.39,1.39,0,0,1-.41-1A1.35,1.35,0,0,1,389.36,288.38Z"/>
        <path class="cls-14"
              d="M399.81,281.25a4.75,4.75,0,0,1,3.36,1.26,4.35,4.35,0,0,1,1.36,3.36,4.62,4.62,0,0,1-1.48,3.57,5.31,5.31,0,0,1-3.74,1.37,5.88,5.88,0,0,1-3.69-1.18,4.62,4.62,0,0,1-1.77-3.36h2.28a2.81,2.81,0,0,0,1.1,1.78,3.44,3.44,0,0,0,2.06.62,2.92,2.92,0,0,0,2.12-.8,2.69,2.69,0,0,0,.82-2,2.54,2.54,0,0,0-.81-2,3,3,0,0,0-2.09-.74,3.1,3.1,0,0,0-2.84,1.48h-2.16l1.72-8h7.82v2.16h-6.12l-.72,3.4A4.4,4.4,0,0,1,399.81,281.25Z"/>
        <path class="cls-14" d="M372.09,306.89h-1.72l-3.55-4v4h-1.36v-8.4h1.36v3.84l3.39-3.84h1.71l-3.63,4.09Z"/>
        <path class="cls-14"
              d="M375.71,300.14a3.38,3.38,0,0,1,3.42,3.45,3.35,3.35,0,0,1-3.42,3.44,3.45,3.45,0,1,1,0-6.89Zm1.46,1.9a2.08,2.08,0,0,0-2.92,0,2.15,2.15,0,0,0-.59,1.55,2.07,2.07,0,0,0,.59,1.54,2.08,2.08,0,0,0,2.92,0,2.07,2.07,0,0,0,.59-1.54A2.15,2.15,0,0,0,377.17,302Z"/>
        <path class="cls-14"
              d="M384.22,300.14a2.81,2.81,0,0,1,2.17,1,4,4,0,0,1,0,4.95,2.81,2.81,0,0,1-2.19,1,2.6,2.6,0,0,1-2.31-1.25v4.11h-1.35v-9.6h1.35v1.12A2.6,2.6,0,0,1,384.22,300.14Zm-.3,5.59a1.82,1.82,0,0,0,1.41-.6,2.41,2.41,0,0,0,0-3.09,1.82,1.82,0,0,0-1.41-.6,1.91,1.91,0,0,0-1.45.6,2.14,2.14,0,0,0-.58,1.55,2.11,2.11,0,0,0,.58,1.54A1.91,1.91,0,0,0,383.92,305.73Z"/>
        <path class="cls-14" d="M393.16,300.29h1.59v6.6H393.4v-2.76l.08-2.09-3.26,4.85h-1.6v-6.6H390v2.76l-.09,2.07Z"/>
        <path class="cls-14"
              d="M402.88,305.61h1.2v3h-1.36v-1.71h-5.59v1.71h-1.36v-3h1.16a2.78,2.78,0,0,0,.64-1.66l.59-3.66h4.72Zm-4.48,0h3.12v-4.05h-2.21l-.39,2.45A3.92,3.92,0,0,1,398.4,305.61Z"/>
        <path class="cls-14"
              d="M408.15,300.14a3.38,3.38,0,0,1,3.42,3.45,3.37,3.37,0,0,1-3.42,3.44,3.45,3.45,0,1,1,0-6.89Zm1.45,1.9a2.06,2.06,0,0,0-2.91,0,2.3,2.3,0,0,0,0,3.09,2.09,2.09,0,0,0,2.93,0,2.3,2.3,0,0,0,0-3.09Z"/>
        <path class="cls-14"
              d="M416.65,300.14a2.82,2.82,0,0,1,2.18,1,3.63,3.63,0,0,1,.86,2.48,3.59,3.59,0,0,1-.86,2.47,2.78,2.78,0,0,1-2.19,1,2.57,2.57,0,0,1-2.3-1.25v4.11H413v-9.6h1.36v1.12A2.59,2.59,0,0,1,416.65,300.14Zm-.3,5.59a1.84,1.84,0,0,0,1.42-.6,2.45,2.45,0,0,0,0-3.09,1.84,1.84,0,0,0-1.42-.6,1.94,1.94,0,0,0-1.45.6,2.18,2.18,0,0,0-.57,1.55,2.14,2.14,0,0,0,.57,1.54A1.94,1.94,0,0,0,416.35,305.73Z"/>
        <path class="cls-14"
              d="M458.16,228.41h6.92v2.16H454.46V229l4.06-3.56a40,40,0,0,0,3.25-3,2.51,2.51,0,0,0,.69-1.67,2,2,0,0,0-.71-1.59,2.82,2.82,0,0,0-1.95-.63,2.76,2.76,0,0,0-2.94,2.58h-2.28a5.17,5.17,0,0,1,1.69-3.46,5.31,5.31,0,0,1,3.63-1.28,5,5,0,0,1,3.51,1.23,4,4,0,0,1,1.33,3.05,3.58,3.58,0,0,1-.21,1.21,6.09,6.09,0,0,1-.46,1,6.5,6.5,0,0,1-.94,1.14c-.46.47-.84.85-1.14,1.12s-.83.74-1.59,1.39l-2.2,1.9Z"/>
        <path class="cls-14"
              d="M468,228.38A1.45,1.45,0,0,1,469,228a1.49,1.49,0,0,1,1.06.39,1.32,1.32,0,0,1,.42,1,1.36,1.36,0,0,1-.42,1,1.46,1.46,0,0,1-1.06.4,1.42,1.42,0,0,1-1.05-.4,1.39,1.39,0,0,1-.41-1A1.35,1.35,0,0,1,468,228.38Z"/>
        <path class="cls-14"
              d="M478.22,216.33a5.17,5.17,0,0,1,4.3,1.93,9.92,9.92,0,0,1,0,10.62,5.74,5.74,0,0,1-8.58,0,10,10,0,0,1,0-10.64A5.19,5.19,0,0,1,478.22,216.33Zm0,12.32q3.55,0,3.56-5.08t-3.56-5.08q-3.54,0-3.54,5.08T478.22,228.65Z"/>
        <path class="cls-14"
              d="M447.93,247a4.35,4.35,0,1,1,2.53-7.89,4,4,0,0,1,1.49,2.12h-1.46a2.6,2.6,0,0,0-1-1.18,2.74,2.74,0,0,0-1.56-.44,2.82,2.82,0,0,0-2.11.86,3.26,3.26,0,0,0,0,4.37,2.78,2.78,0,0,0,2.11.86,2.81,2.81,0,0,0,1.56-.43,2.68,2.68,0,0,0,1-1.19H452a4,4,0,0,1-1.49,2.12A4.19,4.19,0,0,1,447.93,247Z"/>
        <path class="cls-14"
              d="M458.37,240.29h1.35v6.6h-1.35v-1.11a2.58,2.58,0,0,1-2.31,1.25,2.78,2.78,0,0,1-2.19-1,4,4,0,0,1,0-4.95,2.8,2.8,0,0,1,2.17-1,2.6,2.6,0,0,1,2.32,1.27Zm-2,5.44a1.92,1.92,0,0,0,1.45-.6,2.11,2.11,0,0,0,.58-1.54,2.14,2.14,0,0,0-.58-1.55,1.92,1.92,0,0,0-1.45-.6,1.84,1.84,0,0,0-1.42.6,2.45,2.45,0,0,0,0,3.09A1.84,1.84,0,0,0,456.35,245.73Z"/>
        <path class="cls-14" d="M466.17,240.29h1.35v6.6h-1.35v-2.73h-3.51v2.73h-1.35v-6.6h1.35v2.59h3.51Z"/>
        <path class="cls-14" d="M473.82,240.29h1.45l-4.36,9.6h-1.46l1.74-3.84-2.6-5.76H470l1.87,4.29Z"/>
        <path class="cls-14"
              d="M480.67,243.39a1.62,1.62,0,0,1,.8.62,1.85,1.85,0,0,1,.27,1,1.7,1.7,0,0,1-.77,1.49,3.6,3.6,0,0,1-2.07.53c-1.86,0-2.93-.77-3.22-2.32h1.37a1.51,1.51,0,0,0,.58,1,2.15,2.15,0,0,0,1.23.29c1,0,1.51-.35,1.51-1.05s-.38-.91-1.16-.91H478v-1h1q1.2,0,1.2-.81c0-.65-.47-1-1.4-1s-1.38.33-1.54,1h-1.38a2.37,2.37,0,0,1,.91-1.47,3.27,3.27,0,0,1,2-.55,3.39,3.39,0,0,1,2,.52,1.6,1.6,0,0,1,.75,1.39A1.39,1.39,0,0,1,480.67,243.39Z"/>
        <path class="cls-14"
              d="M486.19,240.14a3.12,3.12,0,0,1,2.51,1.09,3.7,3.7,0,0,1,.83,2.73h-5.36a2,2,0,0,0,.64,1.38,2,2,0,0,0,1.42.5,2.2,2.2,0,0,0,1.07-.25,1.57,1.57,0,0,0,.69-.73h1.41a3.08,3.08,0,0,1-1.23,1.62,3.48,3.48,0,0,1-1.95.55,3.3,3.3,0,0,1-3.43-3.43,3.39,3.39,0,0,1,1-2.48A3.28,3.28,0,0,1,486.19,240.14Zm0,1.18a1.92,1.92,0,0,0-1.26.42,2.15,2.15,0,0,0-.69,1.11h3.84a2,2,0,0,0-.66-1.11A1.84,1.84,0,0,0,486.19,241.32Z"/>
        <path class="cls-14"
              d="M492.34,240.29H497v6.6h-1.36v-5.33h-2.18l-.43,2.76a4.3,4.3,0,0,1-.78,2.07,1.72,1.72,0,0,1-1.41.64,4.09,4.09,0,0,1-.67-.07v-1.23l.13,0h.27a.83.83,0,0,0,.72-.33,3.13,3.13,0,0,0,.39-1.24Z"/>
        <path class="cls-14"
              d="M551.26,248.23v2.12h-2v3.22H547v-3.22l-7.22,0v-2.14l6.12-8.66h3.36v8.66Zm-9,0H547v-6.56h-.18Z"/>
        <path class="cls-14"
              d="M553.91,251.38A1.45,1.45,0,0,1,555,251a1.49,1.49,0,0,1,1.06.39,1.32,1.32,0,0,1,.42,1,1.36,1.36,0,0,1-.42,1,1.46,1.46,0,0,1-1.06.4,1.42,1.42,0,0,1-1.05-.4,1.39,1.39,0,0,1-.41-1A1.35,1.35,0,0,1,553.91,251.38Z"/>
        <path class="cls-14"
              d="M567.08,246.21a3.33,3.33,0,0,1,1.67,1.28,4.07,4.07,0,0,1-.82,5.19,5.78,5.78,0,0,1-3.71,1.13,6,6,0,0,1-3.74-1.14,4.53,4.53,0,0,1-1.76-3.28H561c.32,1.52,1.39,2.28,3.2,2.28a3.23,3.23,0,0,0,2.12-.61,2.06,2.06,0,0,0,.74-1.67c0-1.33-.89-2-2.66-2h-1.9v-2H564c1.75,0,2.62-.59,2.62-1.78a1.91,1.91,0,0,0-.7-1.55,2.94,2.94,0,0,0-1.94-.59,2.58,2.58,0,0,0-2.8,2.1H558.9a4.56,4.56,0,0,1,1.68-3.17,5.55,5.55,0,0,1,3.46-1.07,5.33,5.33,0,0,1,3.48,1.13,3.55,3.55,0,0,1,1.38,2.87,3.2,3.2,0,0,1-.48,1.74A2.93,2.93,0,0,1,567.08,246.21Z"/>
        <path class="cls-14"
              d="M538.23,265.4a1.79,1.79,0,0,1,1,.77,2.45,2.45,0,0,1,.35,1.34,2.17,2.17,0,0,1-.74,1.74,3,3,0,0,1-2,.63h-3.62v-8.39h3.57a2.81,2.81,0,0,1,1.89.56,2,2,0,0,1,.67,1.59A1.8,1.8,0,0,1,538.23,265.4Zm-.25-1.54a1,1,0,0,0-.32-.82,1.64,1.64,0,0,0-1-.26h-2.06v2.16h2.07C537.53,264.94,538,264.58,538,263.86Zm-1.17,4.73a1.61,1.61,0,0,0,1.12-.31,1.35,1.35,0,0,0,0-1.78,1.63,1.63,0,0,0-1.13-.31h-2.22v2.4Z"/>
        <path class="cls-14"
              d="M546.05,263.29h1.35v6.59h-1.35v-1.1a2.58,2.58,0,0,1-2.31,1.25,2.78,2.78,0,0,1-2.19-1,4,4,0,0,1,0-4.95,2.77,2.77,0,0,1,2.17-1,2.6,2.6,0,0,1,2.32,1.27Zm-2,5.44a1.92,1.92,0,0,0,1.45-.6,2.11,2.11,0,0,0,.58-1.55,2.14,2.14,0,0,0-.58-1.54,1.92,1.92,0,0,0-1.45-.6,1.84,1.84,0,0,0-1.42.6,2.45,2.45,0,0,0,0,3.09A1.84,1.84,0,0,0,544,268.73Z"/>
        <path class="cls-14" d="M553.84,263.29h1.36v6.59h-1.36v-2.72h-3.5v2.72H549v-6.59h1.35v2.59h3.5Z"/>
        <path class="cls-14" d="M561.63,263.29H563v6.59h-1.36v-2.72h-3.5v2.72h-1.36v-6.59h1.36v2.59h3.5Z"/>
        <path class="cls-14"
              d="M569.7,263.29h1.35v6.59H569.7v-1.1a2.58,2.58,0,0,1-2.31,1.25,2.78,2.78,0,0,1-2.19-1,4,4,0,0,1,0-4.95,2.78,2.78,0,0,1,2.17-1,2.6,2.6,0,0,1,2.32,1.27Zm-2,5.44a1.92,1.92,0,0,0,1.45-.6,2.11,2.11,0,0,0,.58-1.55,2.14,2.14,0,0,0-.58-1.54,1.92,1.92,0,0,0-1.45-.6,1.84,1.84,0,0,0-1.42.6,2.45,2.45,0,0,0,0,3.09A1.84,1.84,0,0,0,567.68,268.73Z"/>
        <path class="cls-14"
              d="M575,263.29h3.32v6.59h-1.36V267.5h-1.31l-1.71,2.38h-1.67l1.93-2.48a1.84,1.84,0,0,1-1.6-1.91,2,2,0,0,1,.66-1.65A2.63,2.63,0,0,1,575,263.29Zm.11,3.09h1.85v-1.87H575q-1.11,0-1.11,1C573.93,266.08,574.31,266.38,575.07,266.38Z"/>
    </g>
</svg>
