<svg xmlns="http://www.w3.org/2000/svg" xmlns:xlink="http://www.w3.org/1999/xlink" width="700" height="700" viewBox="0 0 700 700"><defs><style>.cls-1,.cls-10,.cls-12,.cls-13,.cls-14,.cls-2,.cls-20,.cls-3,.cls-5,.cls-7,.cls-9{fill:none;}.cls-10,.cls-12,.cls-13,.cls-14,.cls-15,.cls-16,.cls-2,.cls-20,.cls-3,.cls-5,.cls-6,.cls-7,.cls-8,.cls-9{stroke:#005a5a;}.cls-10,.cls-12,.cls-2,.cls-5,.cls-6{stroke-linecap:round;}.cls-2,.cls-6{stroke-linejoin:round;}.cls-10,.cls-12,.cls-2,.cls-3,.cls-5,.cls-6,.cls-7,.cls-8,.cls-9{stroke-width:0.6px;}.cls-10,.cls-12,.cls-14,.cls-16,.cls-3,.cls-5{stroke-miterlimit:10;}.cls-4{clip-path:url(#clip-path);}.cls-6,.cls-8{fill:#fff;}.cls-7,.cls-8{stroke-miterlimit:22.93;}.cls-8{fill-rule:evenodd;}.cls-10{stroke-dasharray:0.11 1.08;}.cls-11{clip-path:url(#clip-path-2);}.cls-12{stroke-dasharray:0.1 0.98;}.cls-13{stroke-width:4px;}.cls-14{stroke-dasharray:10 6;}.cls-15,.cls-16,.cls-19{fill:#005a5a;}.cls-17{clip-path:url(#clip-path-3);}.cls-18{clip-path:url(#clip-path-4);}</style><clipPath id="clip-path"><rect class="cls-1" x="224.05" y="360.71" width="26.5" height="100.14"/></clipPath><clipPath id="clip-path-2"><rect class="cls-1" x="257" y="440.01" width="26.5" height="88.96"/></clipPath><clipPath id="clip-path-3"><rect class="cls-1" x="164" y="277" width="49.07" height="48"/></clipPath><clipPath id="clip-path-4"><rect class="cls-1" x="107.61" y="515.33" width="44.39" height="41.06"/></clipPath></defs><g id="мебель"><path class="cls-2" d="M149,306V270H64v36h85Z"/><path class="cls-2" d="M107.26,283.66a1.71,1.71,0,0,0-.08-.71,1.66,1.66,0,0,0-.35-.62,1.73,1.73,0,0,0-.58-.42,1.71,1.71,0,0,0-1.4,0,1.83,1.83,0,0,0-.58.42,1.66,1.66,0,0,0-.35.62,1.71,1.71,0,0,0-.08.71,1.84,1.84,0,0,0,.28.94,1.81,1.81,0,0,0,.74.66,1.14,1.14,0,0,1,.72.9.9.9,0,0,1-.14.5.88.88,0,0,1-.39.35l-.33.14-10.7,4a.93.93,0,0,0-.51,1.07,1,1,0,0,0,.34.54,1,1,0,0,0,.6.2h22.44a1,1,0,0,0,.59-.21,1,1,0,0,0,.33-.53,1,1,0,0,0-.07-.63.94.94,0,0,0-.44-.44l-10.14-3.73"/><path class="cls-2" d="M100,284H89"/><path class="cls-2" d="M124,284H113"/><line class="cls-2" x1="149" y1="304" x2="64" y2="304"/><line class="cls-2" x1="129.9" y1="306" x2="129.9" y2="304"/><line class="cls-2" x1="106.02" y1="306" x2="106.02" y2="304"/><line class="cls-2" x1="83.1" y1="306" x2="83.1" y2="304"/><path class="cls-2" d="M68.57,494.32v0Zm-4.57,0V387.7H177.62a5.79,5.79,0,0,1,4.07,1.69,5.72,5.72,0,0,1,1.68,4v95.18a5.72,5.72,0,0,1-1.68,4,5.78,5.78,0,0,1-4.07,1.67Z"/><path class="cls-2" d="M99.2,494.34V417.2h23.74V387.66L99.2,417.2"/><path class="cls-3" d="M73,475.3c.82.79,1.95,1.81,2.56,2.48s1.33-.16.23-1.21-1.87-1.36-2.35-2c-1.66-2.1-.8-4.58-.84-7.24s.1-10.14.21-12.81a20,20,0,0,0-.59-6.94,11.67,11.67,0,0,1-.4-2.09c0-.78.19-1,.88-.82a15.2,15.2,0,0,0,7.58,0,36.86,36.86,0,0,1,11,.65c-.42.19-1.79.83-2.1.92-2.76,1-1.81,1.71-1,1.4l1.18-.59c1.2-.56,2.4-1.19,3.59-1.73a16,16,0,0,1,2.11-.75c.61-.21.9.12.84.71a10.81,10.81,0,0,1-.38,2.09,17.69,17.69,0,0,0-.59,6.27c.28,4.43.3,13.65,0,18.08a17.43,17.43,0,0,0,.57,6.27,10.91,10.91,0,0,1,.42,2.09c0,.78-.21,1-1,.86-1.22-.31-4.2,0-5.57-.48.48-.65,2.1-1.71,2.5-2.47s0-1.52-.46-.67a9.3,9.3,0,0,1-3.91,3.08,9.41,9.41,0,0,1-5,.6,38.56,38.56,0,0,1-4.42-.5,10.65,10.65,0,0,0-4.86.25c-1.41.42-1.64.19-1.37-1.25S72.77,476.68,73,475.3Z"/><path class="cls-3" d="M73,431c.82.79,1.95,1.84,2.56,2.48s1.33-.16.23-1.19-1.87-1.35-2.35-2c-1.66-2.09-.8-4.58-.84-7.24s.1-10.13.21-12.81a20,20,0,0,0-.59-6.94,11.35,11.35,0,0,1-.4-2.09c0-.75.19-1.05.88-.8a15.2,15.2,0,0,0,7.58,0,37.55,37.55,0,0,1,11,.65l-2.1.94c-2.76,1-1.81,1.7-1,1.38a12.85,12.85,0,0,0,1.18-.58c1.2-.55,2.4-1.17,3.59-1.74a18.59,18.59,0,0,1,2.11-.73c.76-.23.9,0,.84.69a9.86,9.86,0,0,1-.38,2.09,17.69,17.69,0,0,0-.59,6.27c.28,4.43.3,13.65,0,18.09a17.48,17.48,0,0,0,.57,6.27,10.61,10.61,0,0,1,.42,2.09c0,.79-.21,1-1,.86-1.22-.3-4.2,0-5.57-.46.48-.65,2.1-1.72,2.5-2.49s0-1.51-.46-.65a9.22,9.22,0,0,1-8.86,3.66,40.9,40.9,0,0,1-4.42-.48,10,10,0,0,0-4.86.25c-1.41.4-1.64.19-1.37-1.28S72.77,432.44,73,431Z"/><path class="cls-2" d="M66.29,360H88.81A2.15,2.15,0,0,1,91,362.15v22.37a2.16,2.16,0,0,1-2.16,2.16H66.29a2.16,2.16,0,0,1-2.16-2.16V362.15A2.16,2.16,0,0,1,66.29,360Z"/><path class="cls-2" d="M66.29,495.32H88.81A2.16,2.16,0,0,1,91,497.48v22.37A2.15,2.15,0,0,1,88.81,522H66.29a2.16,2.16,0,0,1-2.16-2.15V497.48A2.16,2.16,0,0,1,66.29,495.32Z"/><g class="cls-4"><path class="cls-2" d="M249.52,460.27v-99H225.08v99Z"/><path class="cls-2" d="M224.39,377v1.15"/><path class="cls-2" d="M225.08,378.16h-.69"/><path class="cls-2" d="M224.39,409.63v1.15"/><path class="cls-2" d="M225.08,410.78h-.69"/><path class="cls-2" d="M224.39,443v1.15"/><path class="cls-2" d="M225.08,444.17h-.69"/></g><line class="cls-5" x1="226.23" y1="361.29" x2="226.23" y2="460.27"/><line class="cls-5" x1="226.23" y1="394.2" x2="249.1" y2="394.2"/><line class="cls-5" x1="226.23" y1="427.69" x2="249.1" y2="427.69"/><line class="cls-5" x1="226.23" y1="327.56" x2="226.23" y2="361.29"/><rect class="cls-3" x="225.08" y="327.56" width="24.44" height="33.73"/><path class="cls-2" d="M224.22,343.85V345"/><path class="cls-2" d="M224.91,345h-.69"/><line class="cls-5" x1="226.23" y1="460.27" x2="226.23" y2="494"/><rect class="cls-3" x="225.08" y="460.27" width="24.44" height="33.73"/><path class="cls-2" d="M224.22,476.56v1.15"/><path class="cls-2" d="M224.91,477.71h-.69"/><path class="cls-6" d="M246.61,399H243.7v78h2.91Z"/><path class="cls-6" d="M249.5,424.35v27.38l-2.93,20.91v-69.4Z"/><path class="cls-6" d="M245.17,456v15.25"/><path class="cls-7" d="M246.7,173.55V200c0,1.29.73,2.33,1.64,2.33h27.81c.91,0,1.64-1,1.64-2.33V173.55c0-1.29-.73-2.33-1.64-2.33H248.34C247.43,171.22,246.7,172.26,246.7,173.55Z"/><path class="cls-7" d="M254.2,178.78v11.69a3.28,3.28,0,0,0,3.27,3.27h13.84a3.28,3.28,0,0,0,3.27-3.27V178.78a3.27,3.27,0,0,0-3.27-3.27H257.47A3.27,3.27,0,0,0,254.2,178.78Z"/><path class="cls-7" d="M264.86,182.09a2,2,0,0,0-1.07.33,1.91,1.91,0,0,0-.82,2,2,2,0,0,0,.53,1,1.87,1.87,0,0,0,1,.52,1.84,1.84,0,0,0,1.11-.11,1.9,1.9,0,0,0,.86-.7,2,2,0,0,0,.33-1.07,1.95,1.95,0,0,0-1.93-1.93Z"/><path class="cls-8" d="M266,174.06a9.09,9.09,0,0,1-3.22,2.65v2.4a1.81,1.81,0,0,0,1.61,1.74,1.53,1.53,0,0,0,1.21-.49,1.56,1.56,0,0,0,.34-.58,1.53,1.53,0,0,0,.06-.67Z"/><path class="cls-8" d="M266.27,173l-.87-.63a1,1,0,0,0-.73-.23,1,1,0,0,0-.69.34c-.6.81-2.64,3.58-1.33,4.54s3.33-1.83,3.85-2.63a1.07,1.07,0,0,0,.16-.74A1.1,1.1,0,0,0,266.27,173Z"/><path class="cls-2" d="M243.48,168v37.53H281V168Z"/><path class="cls-9" d="M101.29,223.79v37.58H63.71V223.79Z"/><path class="cls-2" d="M101.29,223.79v37.58h3.42V223.79Z"/><path class="cls-2" d="M86.24,250.65l-4.3-3.28"/><path class="cls-2" d="M86.24,247.37l-4.3,3.28"/><path class="cls-2" d="M84.21,246.57v4.55"/><path class="cls-2" d="M86.24,243.88l-4.3-3.28"/><path class="cls-2" d="M86.24,240.6l-4.3,3.28"/><path class="cls-2" d="M84.21,239.73v4.56"/><path class="cls-2" d="M86.24,237.11l-4.3-3.28"/><path class="cls-2" d="M86.24,233.83l-4.3,3.28"/><path class="cls-2" d="M84.21,232.9v4.56"/><rect class="cls-2" x="64" y="168.08" width="236.41" height="37.59"/><rect class="cls-2" x="63.48" y="205.67" width="37.7" height="18"/><path class="cls-2" d="M177.6,201.11h29.61V172.64H177.6Z"/><path class="cls-2" d="M185,184.82a4.07,4.07,0,0,0,2.27-.69,4.09,4.09,0,1,0-2.27.69Z"/><path class="cls-2" d="M185,199.07a5.26,5.26,0,1,0-4.38-8.19,5.27,5.27,0,0,0,4.38,8.19Z"/><path class="cls-2" d="M200.21,185.92a5.26,5.26,0,0,0,5.16-6.29,5.18,5.18,0,0,0-1.44-2.69,5.26,5.26,0,0,0-9,3.72,5.29,5.29,0,0,0,5.27,5.26Z"/><path class="cls-2" d="M200.21,197.9a4.07,4.07,0,0,0,2.27-.69,4.15,4.15,0,0,0,1.51-1.83,4.1,4.1,0,0,0-.89-4.46,4,4,0,0,0-2.1-1.12,4.08,4.08,0,0,0-4.57,5.58,4.08,4.08,0,0,0,3.78,2.52Z"/><path class="cls-10" d="M210.63,170.36v64.86a1.2,1.2,0,0,1-.36.85,1.28,1.28,0,0,1-.88.35H174.28a1.26,1.26,0,0,1-.87-.35,1.17,1.17,0,0,1-.37-.85V170.36"/><path class="cls-2" d="M173,205.67h37.59V168.08H173Z"/><g class="cls-11"><path class="cls-2" d="M259.79,449.72h1.66v69.54h-1.66Z"/><path class="cls-2" d="M258,472.41v23.81l1.76,18.19V454.05Z"/><path class="cls-2" d="M258,528.46V440.52h24.44v87.94Z"/><path class="cls-2" d="M283.16,454.49v1"/><path class="cls-2" d="M282.47,455.51h.69"/><path class="cls-2" d="M283.16,483.47v1"/><path class="cls-2" d="M282.47,484.49h.69"/><path class="cls-2" d="M283.16,513.13v1"/><path class="cls-2" d="M282.47,514.15h.69"/></g><line class="cls-5" x1="281.32" y1="440.52" x2="281.32" y2="528.46"/><line class="cls-5" x1="281.32" y1="469.76" x2="261.45" y2="469.76"/><line class="cls-5" x1="281.32" y1="499.52" x2="261.45" y2="499.52"/><path class="cls-12" d="M342.33,481.81V399.76a2.27,2.27,0,0,1,2.26-2.27h40.74"/><path class="cls-3" d="M418.7,481.23H385.33a2.27,2.27,0,0,0-2.27,2.26v33.38m35.64-35.64h18.67a2.27,2.27,0,0,1,2.27,2.26v52a2.27,2.27,0,0,1-2.27,2.26h-52a2.27,2.27,0,0,1-2.27-2.26V516.87m35.08-35.08v33.38a2.26,2.26,0,0,1-2.26,2.26H382.5"/><path class="cls-3" d="M418.7,439.36H385.33a2.27,2.27,0,0,0-2.27,2.26V479a2.27,2.27,0,0,0,2.27,2.27H418.7m0-41.87h18.67a2.27,2.27,0,0,1,2.27,2.26V479a2.27,2.27,0,0,1-2.27,2.27H418.7m-.56-41.3v41.86"/><path class="cls-3" d="M388.15,397.49h-2.82a2.27,2.27,0,0,0-2.27,2.27V437.1a2.27,2.27,0,0,0,2.27,2.26H418.7M430,394.1h7.35a2.27,2.27,0,0,1,2.27,2.26V437.1a2.27,2.27,0,0,1-2.27,2.26H418.7m-.43-15.28v15.85"/><path class="cls-3" d="M427.76,402h.56a2.27,2.27,0,0,0,2.27-2.26V393a2.27,2.27,0,0,0-2.27-2.26H391a2.26,2.26,0,0,0-2.26,2.26v6.79A2.26,2.26,0,0,0,391,402h20.94"/><path class="cls-3" d="M407.26,417.18c.4.66,1,1.52,1.31,2.1s.91.17.41-.71-1-1.21-1.2-1.68c-.68-1.69.33-3.06.75-4.65s2-6.44,2.54-8a12.79,12.79,0,0,0,.95-4.53,7.3,7.3,0,0,1,.13-1.4c.08-.48.35-.61.73-.34a11.19,11.19,0,0,0,5,1.53,26.6,26.6,0,0,1,7.18,2.54l-1.53.21c-2,.11-1.52.7-1,.67l.89-.15c.9-.11,1.8-.28,2.74-.37a12.08,12.08,0,0,1,1.47-.09c.45,0,.54.31.42.62a6.16,6.16,0,0,1-.72,1.24,11.51,11.51,0,0,0-1.57,3.86,112.06,112.06,0,0,1-3.42,11.34,10.67,10.67,0,0,0-.81,4.1,6.85,6.85,0,0,1-.12,1.43c-.1.52-.35.61-.8.35s-2.82-.89-3.59-1.39a18.23,18.23,0,0,0,2.12-1.06c.49-.45.32-.93-.18-.51a6.63,6.63,0,0,1-3.2,1.18,6.5,6.5,0,0,1-3.34-.59,24.28,24.28,0,0,1-2.84-1.18,7.55,7.55,0,0,0-3.27-.77c-1,0-1.11-.21-.66-1.07S406.77,418,407.26,417.18Z"/><path class="cls-3" d="M337.8,529.31v6.23a2.27,2.27,0,0,0,2.27,2.26H380.8a2.26,2.26,0,0,0,2.26-2.26v-52a2.26,2.26,0,0,0-2.26-2.26H343.46a2.26,2.26,0,0,0-2.26,2.26v4"/><path class="cls-3" d="M345.72,509v-19.8a2.27,2.27,0,0,0-2.26-2.27h-6.79a2.27,2.27,0,0,0-2.26,2.27v37.34a2.26,2.26,0,0,0,2.26,2.26h6.79a2.26,2.26,0,0,0,2.26-2.26v-.57"/><path class="cls-3" d="M359.5,521.55a56.11,56.11,0,0,1-8.09,2.28,11.33,11.33,0,0,0-3.86,1.58,6.63,6.63,0,0,1-1.24.71c-.31.13-.62,0-.62-.42a12.08,12.08,0,0,1,.09-1.47c.09-.93.26-1.83.38-2.73l.14-.89c0-.57-.56-1.07-.67.94l-.21,1.53a26.54,26.54,0,0,1-2.54-7.17,11.24,11.24,0,0,0-1.53-5c-.27-.38-.14-.65.34-.73a7.3,7.3,0,0,1,1.4-.13,12.58,12.58,0,0,0,4.53-.95c1.59-.51,6.44-2.13,8-2.54s3-1.43,4.65-.75c.48.21.81.7,1.68,1.2s1.29-.06.71-.41-1.44-.9-2.1-1.3c.8-.49,1.79-1.11,2.65-1.56s1.06-.33,1.07.67a8.69,8.69,0,0,0,.85,3.47"/><path class="cls-3" d="M375.3,505.28c.66.4,1.52,1,2.1,1.3s.17.91-.71.41-1.21-1-1.68-1.2c-1.69-.68-3.06.33-4.65.75s-6.44,2-8,2.54a12.79,12.79,0,0,1-4.53.95,7.3,7.3,0,0,0-1.4.13c-.48.08-.61.35-.34.73a11.2,11.2,0,0,1,1.53,5,26.54,26.54,0,0,0,2.54,7.17l.21-1.53c.11-2,.7-1.51.67-.94l-.14.89c-.12.89-.29,1.8-.38,2.73a12.08,12.08,0,0,0-.09,1.47c0,.45.31.55.62.42a6.16,6.16,0,0,0,1.24-.72,11.51,11.51,0,0,1,3.86-1.57,112.06,112.06,0,0,0,11.34-3.42,10.86,10.86,0,0,1,4.1-.81,6.85,6.85,0,0,0,1.43-.12c.53-.1.61-.35.35-.8s-.89-2.82-1.39-3.59a19.19,19.19,0,0,1-1.06,2.13c-.45.48-.93.31-.51-.19a6.51,6.51,0,0,0,.59-6.54,24.28,24.28,0,0,0-1.18-2.84,7.54,7.54,0,0,1-.77-3.26c0-1-.21-1.12-1.07-.67S376.1,504.79,375.3,505.28Z"/><path class="cls-3" d="M276.68,416h12l0-4h-12Z"/><path class="cls-3" d="M271.17,419l22.94,0a.53.53,0,0,0,.53-.53v-1.92a.53.53,0,0,0-.53-.53l-22.94,0a.53.53,0,0,0-.53.53v1.92A.53.53,0,0,0,271.17,419Z"/><path class="cls-3" d="M288.6,331.3l-12,0,0,4,12,0Z"/><path class="cls-3" d="M294.11,328.3l-22.94,0a.53.53,0,0,0-.53.53v1.92a.53.53,0,0,0,.53.53l22.94,0a.53.53,0,0,0,.53-.53v-1.92A.53.53,0,0,0,294.11,328.3Z"/><path class="cls-3" d="M288.86,412a4.34,4.34,0,0,0,1.7-.34,4.26,4.26,0,0,0,1.44-1,4.41,4.41,0,0,0,1-1.44,4.56,4.56,0,0,0,.33-1.71l1.15-9.52H271.08l1.15,9.54a4.47,4.47,0,0,0,4.46,4.46Z"/><path class="cls-3" d="M325.7,379.46v-12l-4,0v12Z"/><path class="cls-3" d="M328.7,385l0-22.94a.53.53,0,0,0-.53-.53h-1.92a.53.53,0,0,0-.53.53l0,22.94a.53.53,0,0,0,.53.53h1.92A.53.53,0,0,0,328.7,385Z"/><path class="cls-3" d="M321.68,367.28a4.34,4.34,0,0,0-.34-1.7,4.26,4.26,0,0,0-1-1.44,4.41,4.41,0,0,0-1.44-1,4.56,4.56,0,0,0-1.71-.33l-9.52-1.15v23.37l9.54-1.15a4.47,4.47,0,0,0,4.46-4.46Z"/><path class="cls-3" d="M294.44,349.32l-1.15-9.55a4.51,4.51,0,0,0-1.32-3.16,4.56,4.56,0,0,0-3.16-1.31H276.7a4.49,4.49,0,0,0-4.47,4.47l-1.13,9.53Z"/><path class="cls-3" d="M258.64,350.56v46.18c0,.7.87,1.26,1.95,1.26h45.09c1.08,0,1.95-.56,1.95-1.26V350.56c0-.7-.87-1.26-1.95-1.26H260.59C259.51,349.3,258.64,349.86,258.64,350.56Z"/></g><g id="балконы"><polyline class="cls-13" points="106 564 106 606 203 606 203 564"/></g><g id="пунктир"><line class="cls-14" x1="60" y1="327.5" x2="157" y2="327.5"/><line class="cls-14" x1="307.5" y1="248.5" x2="307.5" y2="319.5"/><line class="cls-14" x1="251" y1="320.5" x2="441" y2="320.5"/></g><g id="стены_внутренние" data-name="стены внутренние"><rect class="cls-15" x="300.5" y="162.5" width="7" height="101"/><polygon class="cls-15" points="442.5 320.5 449.5 320.5 449.5 327.5 449.5 327.5 449.5 550.5 442.5 550.5 442.5 327.5 442.5 327.5 442.5 320.5"/><polygon class="cls-15" points="257.5 320.5 257.5 327.5 257.5 327.5 257.5 549.5 250.5 549.5 250.5 327.5 212.5 327.5 212.5 320.5 257.5 320.5"/><polygon class="cls-15" points="165.5 320.5 156.5 320.5 156.5 262.5 59.5 262.5 59.5 269.5 149.5 269.5 149.5 327.5 165.5 327.5 165.5 320.5"/></g><g id="стены_фасад" data-name="стены фасад"><polygon class="cls-16" points="50.5 568.5 50.5 154.5 307.5 154.5 307.5 167.5 63.5 167.5 63.5 544.5 107.5 544.5 107.5 568.5 50.5 568.5"/><rect class="cls-16" x="201.5" y="544.5" width="86" height="24"/><rect class="cls-16" x="413.5" y="544.5" width="36" height="24"/></g><g id="двери"><g class="cls-17"><path class="cls-9" d="M164,325h4.72V277m44.35,48h-3.78"/><path class="cls-9" d="M210.61,325c0-14.56-7.58-46.77-41.7-46.77"/></g><g class="cls-18"><path class="cls-9" d="M111.88,515.33v41.06h-4.27m41,0H152"/><path class="cls-9" d="M149.78,556.39c0-12.46-6.86-40-37.73-40"/></g></g><g id="окна"><g id="Окно"><path class="cls-19" d="M201,545v23H105V545h96m1-1H104v25h98V544Z"/><line class="cls-20" x1="104" y1="560.5" x2="202" y2="560.5"/><line class="cls-20" x1="104" y1="556.5" x2="202" y2="556.5"/></g><g id="Окно-2" data-name="Окно"><path class="cls-19" d="M417,545v23H281V545H417m1-1H280v25H418V544Z"/><line class="cls-20" x1="280" y1="560.5" x2="418" y2="560.5"/><line class="cls-20" x1="280" y1="556.5" x2="418" y2="556.5"/></g></g><g id="текст"><path class="cls-19" d="M230.13,253.41a3.4,3.4,0,0,1,1.73,1.32,3.76,3.76,0,0,1,.61,2.14,3.58,3.58,0,0,1-1.49,3,6.94,6.94,0,0,1-7.56,0,3.58,3.58,0,0,1-1.49-3,3.76,3.76,0,0,1,.61-2.14,3.4,3.4,0,0,1,1.73-1.32,3,3,0,0,1-1.4-1.18,3.34,3.34,0,0,1-.5-1.8,3.44,3.44,0,0,1,1.38-2.83,6,6,0,0,1,6.9,0,3.44,3.44,0,0,1,1.38,2.83,3.34,3.34,0,0,1-.5,1.8A3,3,0,0,1,230.13,253.41Zm-2.92,5.44a3.74,3.74,0,0,0,2.19-.57,1.86,1.86,0,0,0,.81-1.61q0-2.16-3-2.16c-2,0-3,.72-3,2.16a1.86,1.86,0,0,0,.81,1.61A3.79,3.79,0,0,0,227.21,258.85Zm0-10.2a2.93,2.93,0,0,0-1.9.55,1.85,1.85,0,0,0-.68,1.51c0,1.23.86,1.84,2.58,1.84s2.56-.61,2.56-1.84a1.85,1.85,0,0,0-.68-1.51A2.88,2.88,0,0,0,227.21,248.65Z"/><path class="cls-19" d="M235.34,258.56a1.45,1.45,0,0,1,1-.39,1.49,1.49,0,0,1,1.06.39,1.32,1.32,0,0,1,.42,1,1.36,1.36,0,0,1-.42,1,1.46,1.46,0,0,1-1.06.4,1.42,1.42,0,0,1-1-.4,1.39,1.39,0,0,1-.41-1A1.35,1.35,0,0,1,235.34,258.56Z"/><path class="cls-19" d="M248.51,253.41a3.4,3.4,0,0,1,1.73,1.32,3.76,3.76,0,0,1,.61,2.14,3.58,3.58,0,0,1-1.49,3,6.94,6.94,0,0,1-7.56,0,3.58,3.58,0,0,1-1.49-3,3.76,3.76,0,0,1,.61-2.14,3.4,3.4,0,0,1,1.73-1.32,3,3,0,0,1-1.4-1.18,3.34,3.34,0,0,1-.5-1.8,3.44,3.44,0,0,1,1.38-2.83,6,6,0,0,1,6.9,0,3.44,3.44,0,0,1,1.38,2.83,3.34,3.34,0,0,1-.5,1.8A3,3,0,0,1,248.51,253.41Zm-2.92,5.44a3.74,3.74,0,0,0,2.19-.57,1.86,1.86,0,0,0,.81-1.61q0-2.16-3-2.16c-2,0-3,.72-3,2.16a1.86,1.86,0,0,0,.81,1.61A3.79,3.79,0,0,0,245.59,258.85Zm0-10.2a2.93,2.93,0,0,0-1.9.55,1.85,1.85,0,0,0-.68,1.51c0,1.23.86,1.84,2.58,1.84s2.56-.61,2.56-1.84a1.85,1.85,0,0,0-.68-1.51A2.88,2.88,0,0,0,245.59,248.65Z"/><path class="cls-19" d="M206.83,277.06h-1.71l-3.55-4v4h-1.36v-8.39h1.36v3.83l3.39-3.83h1.71L203,272.76Z"/><path class="cls-19" d="M212,270.46h1.45l-4.37,9.6h-1.45l1.74-3.83-2.61-5.77h1.46l1.87,4.3Z"/><path class="cls-19" d="M220.42,277.06H218.8l-1.6-2.36-1.53,2.36H214l2.37-3.39-2.23-3.21h1.62l1.46,2.21,1.42-2.21h1.63l-2.24,3.23Z"/><path class="cls-19" d="M226.36,270.46h1.35v6.6h-1.35v-2.72h-3.51v2.72H221.5v-6.6h1.35v2.6h3.51Z"/><path class="cls-19" d="M231.52,270.46h3.31v6.6h-1.36v-2.38h-1.3l-1.72,2.38h-1.67l1.93-2.48a1.83,1.83,0,0,1-1.59-1.91,2,2,0,0,1,.66-1.65A2.62,2.62,0,0,1,231.52,270.46Zm.11,3.1h1.84v-1.87h-1.88c-.74,0-1.1.32-1.1,1S230.87,273.56,231.63,273.56Z"/><path class="cls-19" d="M240.56,272.83v1.3h-4v-1.3Z"/><path class="cls-19" d="M247.19,270.46h1.35v6.6h-1.35v-2.72h-3.5v2.72h-1.36v-6.6h1.36v2.6h3.5Z"/><path class="cls-19" d="M254.65,270.46h1.6v6.6h-1.36v-2.75l.09-2.09-3.27,4.84h-1.59v-6.6h1.35v2.77l-.08,2.07Z"/><path class="cls-19" d="M265.33,270.46h1.36v6.6h-8.87v-6.6h1.36v5.33h2.4v-5.33h1.35v5.33h2.4Z"/><path class="cls-19" d="M273.41,270.46h1.35v6.6h-1.35V276a2.58,2.58,0,0,1-2.31,1.25,2.81,2.81,0,0,1-2.19-1,4,4,0,0,1,0-4.95,2.81,2.81,0,0,1,2.17-1,2.6,2.6,0,0,1,2.32,1.27Zm-2,5.45a1.91,1.91,0,0,0,1.45-.6,2.11,2.11,0,0,0,.58-1.54,2.14,2.14,0,0,0-.58-1.55,1.91,1.91,0,0,0-1.45-.6,1.82,1.82,0,0,0-1.41.6,2.41,2.41,0,0,0,0,3.09A1.82,1.82,0,0,0,271.39,275.91Z"/><path class="cls-19" d="M146.39,342.57h1v14h-2.26V345.21l-3.18,1.3v-2.22Z"/><path class="cls-19" d="M154.09,342.57h1v14h-2.26V345.21l-3.18,1.3v-2.22Z"/><path class="cls-19" d="M158.8,354.38a1.45,1.45,0,0,1,1-.39,1.49,1.49,0,0,1,1.06.39,1.32,1.32,0,0,1,.42,1,1.36,1.36,0,0,1-.42,1,1.46,1.46,0,0,1-1.06.4,1.42,1.42,0,0,1-1-.4,1.39,1.39,0,0,1-.41-1A1.35,1.35,0,0,1,158.8,354.38Z"/><path class="cls-19" d="M163.57,342.57h9.76v1.66l-6.08,12.34h-2.56l5.94-11.84h-7.06Z"/><path class="cls-19" d="M120.5,372.88h-1.69l-3.37-4v4h-1.36v-4l-3.37,4H109l3.59-4.3-3.43-4.09h1.67l3.22,3.81v-3.81h1.36v3.81l3.23-3.81h1.67l-3.44,4.09Z"/><path class="cls-19" d="M126.19,366.29h1.6v6.59h-1.36v-2.75l.09-2.09-3.27,4.84h-1.59v-6.59H123V369l-.08,2.08Z"/><path class="cls-19" d="M131,366.29h4.69v6.59h-1.35v-5.32h-2.19l-.43,2.76a4.41,4.41,0,0,1-.77,2.07,1.75,1.75,0,0,1-1.41.64,5.44,5.44,0,0,1-.67-.07v-1.23l.12,0h.27a.83.83,0,0,0,.72-.33,3.34,3.34,0,0,0,.4-1.24Z"/><path class="cls-19" d="M142.39,366.29h1.36v6.59h-1.36v-1.1a2.56,2.56,0,0,1-2.3,1.25,2.78,2.78,0,0,1-2.19-1,4,4,0,0,1,0-4.95,2.79,2.79,0,0,1,2.18-1,2.59,2.59,0,0,1,2.31,1.27Zm-2,5.44a1.94,1.94,0,0,0,1.45-.6,2.15,2.15,0,0,0,.57-1.55,2.17,2.17,0,0,0-.57-1.54,1.94,1.94,0,0,0-1.45-.6,1.84,1.84,0,0,0-1.42.6,2.45,2.45,0,0,0,0,3.09A1.84,1.84,0,0,0,140.38,371.73Z"/><path class="cls-19" d="M147.66,366.29H151v6.59h-1.35V370.5h-1.31l-1.72,2.38h-1.67l1.94-2.48a1.83,1.83,0,0,1-1.6-1.91,2,2,0,0,1,.66-1.65A2.61,2.61,0,0,1,147.66,366.29Zm.11,3.09h1.85v-1.87h-1.89c-.73,0-1.1.32-1.1,1S147,369.38,147.77,369.38Z"/><path class="cls-19" d="M162.37,372.88h-1.75l-3.11-3v3h-1.35v-6.59h1.35v2.85l2.86-2.85h1.74l-3.23,3.13Z"/><path class="cls-19" d="M166,366.14a3.45,3.45,0,1,1-2.43,5.9,3.34,3.34,0,0,1-1-2.46,3.3,3.3,0,0,1,1-2.45A3.34,3.34,0,0,1,166,366.14Zm1.46,1.9a2.08,2.08,0,0,0-2.92,0,2.33,2.33,0,0,0,0,3.09,2,2,0,0,0,1.47.6,2,2,0,0,0,1.46-.6,2.12,2.12,0,0,0,.59-1.55A2.14,2.14,0,0,0,167.41,368Z"/><path class="cls-19" d="M176.22,366.29h1.6v6.59h-1.36v-2.75l.1-2.3-2.27,3.23h0L172,367.83l.1,2.3v2.75h-1.36v-6.59h1.6l1.94,2.71Z"/><path class="cls-19" d="M184.26,366.29h1.36v6.59h-1.36v-2.72h-3.5v2.72H179.4v-6.59h1.36v2.59h3.5Z"/><path class="cls-19" d="M192.32,366.29h1.36v6.59h-1.36v-1.1A2.56,2.56,0,0,1,190,373a2.78,2.78,0,0,1-2.19-1,4,4,0,0,1,0-4.95,2.79,2.79,0,0,1,2.18-1,2.58,2.58,0,0,1,2.31,1.27Zm-2,5.44a1.92,1.92,0,0,0,1.45-.6,2.15,2.15,0,0,0,.57-1.55,2.17,2.17,0,0,0-.57-1.54,1.92,1.92,0,0,0-1.45-.6,1.84,1.84,0,0,0-1.42.6,2.45,2.45,0,0,0,0,3.09A1.84,1.84,0,0,0,190.31,371.73Z"/><path class="cls-19" d="M200.42,366.29v1.27h-2.15v5.32h-1.35v-5.32h-2.16v-1.27h5.66Z"/><path class="cls-19" d="M206.49,366.29h1.36v6.59h-1.36v-1.1a2.55,2.55,0,0,1-2.3,1.25,2.78,2.78,0,0,1-2.19-1,4,4,0,0,1,0-4.95,2.77,2.77,0,0,1,2.17-1,2.58,2.58,0,0,1,2.31,1.27Zm-2,5.44a1.92,1.92,0,0,0,1.45-.6,2.15,2.15,0,0,0,.58-1.55,2.18,2.18,0,0,0-.58-1.54,1.92,1.92,0,0,0-1.45-.6,1.84,1.84,0,0,0-1.42.6,2.45,2.45,0,0,0,0,3.09A1.84,1.84,0,0,0,204.48,371.73Z"/><path class="cls-19" d="M373.39,342.57h1v14h-2.26V345.21l-3.18,1.3v-2.22Z"/><path class="cls-19" d="M381.09,342.57h1v14h-2.26V345.21l-3.18,1.3v-2.22Z"/><path class="cls-19" d="M385.8,354.38a1.45,1.45,0,0,1,1.05-.39,1.49,1.49,0,0,1,1.06.39,1.32,1.32,0,0,1,.42,1,1.36,1.36,0,0,1-.42,1,1.46,1.46,0,0,1-1.06.4,1.42,1.42,0,0,1-1.05-.4,1.39,1.39,0,0,1-.41-1A1.35,1.35,0,0,1,385.8,354.38Z"/><path class="cls-19" d="M390.57,342.57h9.76v1.66l-6.08,12.34h-2.56l5.94-11.84h-7.06Z"/><path class="cls-19" d="M347.5,372.88h-1.69l-3.37-4v4h-1.36v-4l-3.37,4H336l3.59-4.3-3.43-4.09h1.67l3.22,3.81v-3.81h1.36v3.81l3.23-3.81h1.67l-3.44,4.09Z"/><path class="cls-19" d="M353.19,366.29h1.6v6.59h-1.36v-2.75l.09-2.09-3.27,4.84h-1.59v-6.59H350V369l-.08,2.08Z"/><path class="cls-19" d="M358,366.29h4.69v6.59h-1.35v-5.32h-2.19l-.43,2.76a4.41,4.41,0,0,1-.77,2.07,1.75,1.75,0,0,1-1.41.64,5.44,5.44,0,0,1-.67-.07v-1.23l.12,0h.27a.83.83,0,0,0,.72-.33,3.34,3.34,0,0,0,.4-1.24Z"/><path class="cls-19" d="M369.39,366.29h1.36v6.59h-1.36v-1.1a2.56,2.56,0,0,1-2.3,1.25,2.78,2.78,0,0,1-2.19-1,4,4,0,0,1,0-4.95,2.79,2.79,0,0,1,2.18-1,2.59,2.59,0,0,1,2.31,1.27Zm-2,5.44a1.94,1.94,0,0,0,1.45-.6,2.15,2.15,0,0,0,.57-1.55,2.17,2.17,0,0,0-.57-1.54,1.94,1.94,0,0,0-1.45-.6,1.84,1.84,0,0,0-1.42.6,2.45,2.45,0,0,0,0,3.09A1.84,1.84,0,0,0,367.38,371.73Z"/><path class="cls-19" d="M374.66,366.29H378v6.59h-1.35V370.5h-1.31l-1.72,2.38h-1.67l1.94-2.48a1.83,1.83,0,0,1-1.6-1.91,2,2,0,0,1,.66-1.65A2.61,2.61,0,0,1,374.66,366.29Zm.11,3.09h1.85v-1.87h-1.89c-.73,0-1.1.32-1.1,1S374,369.38,374.77,369.38Z"/><path class="cls-19" d="M389.37,372.88h-1.75l-3.11-3v3h-1.35v-6.59h1.35v2.85l2.86-2.85h1.74l-3.23,3.13Z"/><path class="cls-19" d="M393,366.14a3.45,3.45,0,1,1-2.43,5.9,3.34,3.34,0,0,1-1-2.46,3.3,3.3,0,0,1,1-2.45A3.34,3.34,0,0,1,393,366.14Zm1.46,1.9a2.08,2.08,0,0,0-2.92,0,2.33,2.33,0,0,0,0,3.09,2,2,0,0,0,1.47.6,2,2,0,0,0,1.46-.6,2.12,2.12,0,0,0,.59-1.55A2.14,2.14,0,0,0,394.41,368Z"/><path class="cls-19" d="M403.22,366.29h1.6v6.59h-1.36v-2.75l.1-2.3-2.27,3.23h0L399,367.83l.1,2.3v2.75h-1.36v-6.59h1.6l1.94,2.71Z"/><path class="cls-19" d="M411.26,366.29h1.36v6.59h-1.36v-2.72h-3.5v2.72H406.4v-6.59h1.36v2.59h3.5Z"/><path class="cls-19" d="M419.32,366.29h1.36v6.59h-1.36v-1.1A2.56,2.56,0,0,1,417,373a2.78,2.78,0,0,1-2.19-1,4,4,0,0,1,0-4.95,2.79,2.79,0,0,1,2.18-1,2.58,2.58,0,0,1,2.31,1.27Zm-2,5.44a1.92,1.92,0,0,0,1.45-.6,2.15,2.15,0,0,0,.57-1.55,2.17,2.17,0,0,0-.57-1.54,1.92,1.92,0,0,0-1.45-.6,1.84,1.84,0,0,0-1.42.6,2.45,2.45,0,0,0,0,3.09A1.84,1.84,0,0,0,417.31,371.73Z"/><path class="cls-19" d="M427.42,366.29v1.27h-2.15v5.32h-1.35v-5.32h-2.16v-1.27h5.66Z"/><path class="cls-19" d="M433.49,366.29h1.36v6.59h-1.36v-1.1a2.55,2.55,0,0,1-2.3,1.25,2.78,2.78,0,0,1-2.19-1,4,4,0,0,1,0-4.95,2.77,2.77,0,0,1,2.17-1,2.58,2.58,0,0,1,2.31,1.27Zm-2,5.44a1.92,1.92,0,0,0,1.45-.6,2.15,2.15,0,0,0,.58-1.55,2.18,2.18,0,0,0-.58-1.54,1.92,1.92,0,0,0-1.45-.6,1.84,1.84,0,0,0-1.42.6,2.45,2.45,0,0,0,0,3.09A1.84,1.84,0,0,0,431.48,371.73Z"/><path class="cls-19" d="M96.55,290.57h1v14H95.31V293.21l-3.18,1.3v-2.22Z"/><path class="cls-19" d="M101.26,302.38a1.45,1.45,0,0,1,1-.39,1.49,1.49,0,0,1,1.06.39,1.32,1.32,0,0,1,.42,1,1.36,1.36,0,0,1-.42,1,1.46,1.46,0,0,1-1.06.4,1.42,1.42,0,0,1-1-.4,1.39,1.39,0,0,1-.41-1A1.35,1.35,0,0,1,101.26,302.38Z"/><path class="cls-19" d="M111.71,295.25a4.77,4.77,0,0,1,3.36,1.26,4.35,4.35,0,0,1,1.36,3.36,4.62,4.62,0,0,1-1.48,3.57,5.31,5.31,0,0,1-3.74,1.37,5.88,5.88,0,0,1-3.69-1.18,4.62,4.62,0,0,1-1.77-3.36H108a2.81,2.81,0,0,0,1.1,1.78,3.44,3.44,0,0,0,2.06.62,2.92,2.92,0,0,0,2.12-.8,2.69,2.69,0,0,0,.82-2,2.54,2.54,0,0,0-.81-2,3,3,0,0,0-2.09-.74,3.1,3.1,0,0,0-2.84,1.48h-2.16l1.72-8h7.82v2.16h-6.12l-.72,3.4A4.4,4.4,0,0,1,111.71,295.25Z"/><path class="cls-19" d="M73.15,316.4a1.79,1.79,0,0,1,1,.77,2.37,2.37,0,0,1,.35,1.34,2.19,2.19,0,0,1-.73,1.75,3,3,0,0,1-2,.63H68.13v-8.4h3.58a2.81,2.81,0,0,1,1.89.56,2,2,0,0,1,.67,1.6A1.81,1.81,0,0,1,73.15,316.4Zm-.25-1.54a1,1,0,0,0-.32-.81,1.6,1.6,0,0,0-1-.27H69.49v2.16h2.06Q72.9,315.94,72.9,314.86Zm-1.18,4.73a1.6,1.6,0,0,0,1.12-.31,1.12,1.12,0,0,0,.33-.88,1.16,1.16,0,0,0-.33-.9,1.64,1.64,0,0,0-1.13-.31H69.49v2.4Z"/><path class="cls-19" d="M79,321a3.31,3.31,0,0,1-2.44-1,3.58,3.58,0,0,1,0-4.92,3.3,3.3,0,0,1,2.45-1,3.38,3.38,0,0,1,2.11.69,2.89,2.89,0,0,1,1.13,1.86h-1.4a1.64,1.64,0,0,0-.69-.95,2.12,2.12,0,0,0-2.64.27,2.24,2.24,0,0,0-.57,1.58,2.21,2.21,0,0,0,.57,1.57,2,2,0,0,0,1.48.61,2,2,0,0,0,1.16-.35,1.8,1.8,0,0,0,.69-.95h1.4a2.93,2.93,0,0,1-1.14,1.88A3.46,3.46,0,0,1,79,321Z"/><path class="cls-19" d="M88.55,314.29v1.27H86.4v5.33H85v-5.33H82.88v-1.27h5.67Z"/><path class="cls-19" d="M93.36,314.14a2.81,2.81,0,0,1,2.17,1,4,4,0,0,1,0,4.95,2.81,2.81,0,0,1-2.19,1A2.6,2.6,0,0,1,91,319.78v4.11H89.69v-9.6H91v1.12A2.6,2.6,0,0,1,93.36,314.14Zm-.3,5.59a1.82,1.82,0,0,0,1.41-.6,2.41,2.41,0,0,0,0-3.09,1.82,1.82,0,0,0-1.41-.6,1.91,1.91,0,0,0-1.45.6,2.14,2.14,0,0,0-.58,1.55,2.11,2.11,0,0,0,.58,1.54A1.91,1.91,0,0,0,93.06,319.73Z"/><path class="cls-19" d="M101,314.14a3.38,3.38,0,0,1,3.42,3.45A3.37,3.37,0,0,1,101,321a3.45,3.45,0,1,1,0-6.89Zm1.45,1.9a2.06,2.06,0,0,0-2.91,0,2.3,2.3,0,0,0,0,3.09,2.09,2.09,0,0,0,2.93,0,2.3,2.3,0,0,0,0-3.09Z"/><path class="cls-19" d="M108.93,314.14a3.14,3.14,0,0,1,2.51,1.09,3.7,3.7,0,0,1,.83,2.73h-5.36a2,2,0,0,0,.64,1.38,2,2,0,0,0,1.42.5,2.2,2.2,0,0,0,1.07-.25,1.57,1.57,0,0,0,.69-.73h1.41a3.08,3.08,0,0,1-1.23,1.62,3.48,3.48,0,0,1-2,.55,3.3,3.3,0,0,1-3.43-3.43,3.39,3.39,0,0,1,1-2.48A3.28,3.28,0,0,1,108.93,314.14Zm0,1.18a1.92,1.92,0,0,0-1.26.42,2.15,2.15,0,0,0-.69,1.11h3.84a2,2,0,0,0-.66-1.11A1.84,1.84,0,0,0,108.93,315.32Z"/><path class="cls-19" d="M118.45,314.29h1.36v6.6h-1.36v-2.73H115v2.73h-1.36v-6.6H115v2.59h3.5Z"/><path class="cls-19" d="M126.24,314.29h1.35v6.6h-1.35v-2.73h-3.51v2.73h-1.35v-6.6h1.35v2.59h3.51Z"/><path class="cls-19" d="M132.42,316.35a2.54,2.54,0,0,1,1.72.55,2.06,2.06,0,0,1,.64,1.67,2.17,2.17,0,0,1-.67,1.73,2.56,2.56,0,0,1-1.74.59h-3.2v-6.6h1.35v2.06Zm-.1,3.24c.73,0,1.09-.34,1.09-1a1.1,1.1,0,0,0-.24-.76,1.09,1.09,0,0,0-.82-.26h-1.83v2Zm3.43-5.3h1.36v6.6h-1.36Z"/><path class="cls-19" d="M143.22,314.29h1.59v6.6h-1.35v-2.76l.08-2.09-3.26,4.85h-1.6v-6.6H140v2.76l-.09,2.07Zm-1.47-1a2,2,0,0,1-1.39-.51,1.72,1.72,0,0,1-.57-1.35v-.28h1.08v.23a.84.84,0,0,0,.24.64,1,1,0,0,0,1.28,0,.84.84,0,0,0,.24-.64v-.23h1.08v.28a1.72,1.72,0,0,1-.57,1.35A2,2,0,0,1,141.75,313.29Z"/><path class="cls-19" d="M95.51,328.69h1.35v6.6H88v-6.6h1.36V334h2.4v-5.32h1.36V334h2.4Z"/><path class="cls-19" d="M104.66,335.29h-1.75l-3.11-3.05v3.05H98.45v-6.6H99.8v2.85l2.86-2.85h1.74l-3.23,3.13Z"/><path class="cls-19" d="M110.17,328.69h1.36v6.6h-1.36v-1.11a2.57,2.57,0,0,1-2.3,1.25,2.78,2.78,0,0,1-2.19-1,3.54,3.54,0,0,1-.86-2.47,3.58,3.58,0,0,1,.86-2.48,2.81,2.81,0,0,1,2.17-1,2.6,2.6,0,0,1,2.32,1.27Zm-2,5.44a1.91,1.91,0,0,0,1.45-.6,2.11,2.11,0,0,0,.58-1.54,2.14,2.14,0,0,0-.58-1.55,1.91,1.91,0,0,0-1.45-.6,1.82,1.82,0,0,0-1.41.6,2.45,2.45,0,0,0,0,3.09A1.82,1.82,0,0,0,108.15,334.13Z"/><path class="cls-19" d="M121.92,328.54a2.81,2.81,0,0,1,2.17,1,4,4,0,0,1,0,4.95,2.82,2.82,0,0,1-2.18,1,2.64,2.64,0,0,1-2.32-1.24v3.95h-1.35v-3.95a2.62,2.62,0,0,1-2.31,1.24,2.78,2.78,0,0,1-2.19-1,4,4,0,0,1,0-4.95,2.8,2.8,0,0,1,2.17-1,2.59,2.59,0,0,1,2.32,1.27V326h1.35v3.77A2.63,2.63,0,0,1,121.92,328.54Zm-5.69,5.59a1.92,1.92,0,0,0,1.45-.6,2.15,2.15,0,0,0,.58-1.54,2.19,2.19,0,0,0-.58-1.55,1.92,1.92,0,0,0-1.45-.6,1.84,1.84,0,0,0-1.42.6,2.45,2.45,0,0,0,0,3.09A1.84,1.84,0,0,0,116.23,334.13Zm5.4,0a1.81,1.81,0,0,0,1.41-.6,2.41,2.41,0,0,0,0-3.09,1.81,1.81,0,0,0-1.41-.6,1.91,1.91,0,0,0-1.45.6,2.14,2.14,0,0,0-.58,1.55,2.11,2.11,0,0,0,.58,1.54A1.91,1.91,0,0,0,121.63,334.13Z"/><path class="cls-19" d="M145.24,570.33a5.19,5.19,0,0,1,4.3,1.93,9.92,9.92,0,0,1,0,10.62,5.74,5.74,0,0,1-8.58,0,10,10,0,0,1,0-10.64A5.18,5.18,0,0,1,145.24,570.33Zm0,12.32q3.56,0,3.56-5.08t-3.56-5.08q-3.54,0-3.54,5.08T145.24,582.65Z"/><path class="cls-19" d="M153.43,582.38a1.45,1.45,0,0,1,1-.39,1.49,1.49,0,0,1,1.06.39,1.32,1.32,0,0,1,.42,1,1.36,1.36,0,0,1-.42,1,1.46,1.46,0,0,1-1.06.4,1.42,1.42,0,0,1-1-.4,1.39,1.39,0,0,1-.41-1A1.35,1.35,0,0,1,153.43,582.38Z"/><path class="cls-19" d="M162.22,570.33a5.44,5.44,0,0,1,3.78,1.4,4.76,4.76,0,0,1,1.54,3.72,6.14,6.14,0,0,1-.55,2.46,14.21,14.21,0,0,1-1.37,2.46c-.55.79-1.36,1.9-2.44,3.34l-.66.86h-2.66l3.88-5.08a4.65,4.65,0,0,1-2.18.56,4.79,4.79,0,0,1-3.3-1.23,4.31,4.31,0,0,1-1.38-3.39,4.79,4.79,0,0,1,1.53-3.68A5.37,5.37,0,0,1,162.22,570.33Zm0,8a3.14,3.14,0,0,0,2.21-.78,3,3,0,0,0,0-4.24,3.35,3.35,0,0,0-4.36,0,2.77,2.77,0,0,0-.87,2.13,2.71,2.71,0,0,0,.86,2.1A3.12,3.12,0,0,0,162.2,578.31Z"/><path class="cls-19" d="M143,591.11a18.31,18.31,0,0,0-1.26,3,9.93,9.93,0,0,0,0,5.37,18.31,18.31,0,0,0,1.26,3l-1,.61a11,11,0,0,1,0-12.53Z"/><path class="cls-19" d="M148.1,591.34a3.13,3.13,0,0,1,2.58,1.16,6,6,0,0,1,0,6.37,3.45,3.45,0,0,1-5.15,0,6,6,0,0,1,0-6.39A3.11,3.11,0,0,1,148.1,591.34Zm0,7.39c1.42,0,2.13-1,2.13-3.05s-.71-3-2.13-3-2.13,1-2.13,3S146.68,598.73,148.1,598.73Z"/><path class="cls-19" d="M153,598.57a1,1,0,0,1,1.27,0,.79.79,0,0,1,.25.61.81.81,0,0,1-.25.61,1,1,0,0,1-1.27,0,.84.84,0,0,1-.24-.61A.82.82,0,0,1,153,598.57Z"/><path class="cls-19" d="M160.91,595.47a2,2,0,0,1,1,.77,2.44,2.44,0,0,1-.5,3.11,3.44,3.44,0,0,1-2.22.68,3.63,3.63,0,0,1-2.25-.69,2.7,2.7,0,0,1-1-2h1.37a1.7,1.7,0,0,0,1.92,1.37,2,2,0,0,0,1.27-.37,1.25,1.25,0,0,0,.44-1q0-1.2-1.59-1.2h-1.14V595h.9c1,0,1.57-.36,1.57-1.07a1.15,1.15,0,0,0-.42-.93,1.74,1.74,0,0,0-1.17-.35,1.54,1.54,0,0,0-1.68,1.25H156a2.71,2.71,0,0,1,1-1.9,3.32,3.32,0,0,1,2.08-.64,3.2,3.2,0,0,1,2.09.68,2.13,2.13,0,0,1,.83,1.72,2,2,0,0,1-.29,1A1.75,1.75,0,0,1,160.91,595.47Z"/><path class="cls-19" d="M163.75,591.11l1-.61a11,11,0,0,1,0,12.53l-1-.61a18.31,18.31,0,0,0,1.26-3,9.93,9.93,0,0,0,0-5.37A18.31,18.31,0,0,0,163.75,591.11Z"/></g></svg>