<svg xmlns="http://www.w3.org/2000/svg" xmlns:xlink="http://www.w3.org/1999/xlink" width="700" height="700" viewBox="0 0 700 700">
  <defs>
    <style>
      .cls-1, .cls-11, .cls-12, .cls-13, .cls-14, .cls-15, .cls-17, .cls-19, .cls-20, .cls-21, .cls-22, .cls-23, .cls-24, .cls-25, .cls-26, .cls-28, .cls-30, .cls-31, .cls-32, .cls-34, .cls-4, .cls-5, .cls-6, .cls-7, .cls-8, .cls-9 {
        fill: none;
      }

      .cls-2 {
        fill: #005a5a;
      }

      .cls-3 {
        clip-path: url(#clip-path);
      }

      .cls-11, .cls-12, .cls-13, .cls-14, .cls-15, .cls-17, .cls-19, .cls-20, .cls-21, .cls-22, .cls-23, .cls-24, .cls-25, .cls-26, .cls-27, .cls-28, .cls-30, .cls-31, .cls-32, .cls-34, .cls-4, .cls-5, .cls-6, .cls-7, .cls-8, .cls-9 {
        stroke: #005a5a;
      }

      .cls-11, .cls-20, .cls-21, .cls-23, .cls-24, .cls-25, .cls-4, .cls-5 {
        stroke-linecap: round;
      }

      .cls-11, .cls-20, .cls-23, .cls-24, .cls-25, .cls-28, .cls-4, .cls-5 {
        stroke-linejoin: round;
      }

      .cls-4 {
        stroke-width: 0.949px;
      }

      .cls-5 {
        stroke-width: 0.7px;
      }

      .cls-6 {
        stroke-width: 0.908px;
      }

      .cls-7 {
        stroke-width: 3.747px;
      }

      .cls-8 {
        stroke-width: 0.937px;
      }

      .cls-9 {
        stroke-width: 0.839px;
      }

      .cls-10 {
        clip-path: url(#clip-path-2);
      }

      .cls-11 {
        stroke-width: 0.485px;
      }

      .cls-12, .cls-13, .cls-14, .cls-15, .cls-21, .cls-31, .cls-32 {
        stroke-miterlimit: 10;
      }

      .cls-13 {
        stroke-dasharray: 9.826 5.896;
      }

      .cls-14 {
        stroke-width: 0.493px;
      }

      .cls-15 {
        stroke-width: 0.55px;
      }

      .cls-16 {
        clip-path: url(#clip-path-3);
      }

      .cls-17 {
        stroke-width: 0.56px;
      }

      .cls-18 {
        clip-path: url(#clip-path-4);
      }

      .cls-19 {
        stroke-width: 0.55px;
      }

      .cls-20, .cls-21 {
        stroke-width: 0.546px;
      }

      .cls-21 {
        stroke-dasharray: 0.091 0.865;
      }

      .cls-22, .cls-23 {
        stroke-width: 0.53px;
      }

      .cls-24 {
        stroke-width: 0.529px;
      }

      .cls-25 {
        stroke-width: 0.422px;
      }

      .cls-26, .cls-27 {
        stroke-miterlimit: 22.93;
        stroke-width: 0.465px;
      }

      .cls-27 {
        fill: #fff;
        fill-rule: evenodd;
      }

      .cls-28 {
        stroke-width: 0.384px;
      }

      .cls-29 {
        clip-path: url(#clip-path-5);
      }

      .cls-30 {
        stroke-width: 0.62px;
      }

      .cls-31 {
        stroke-dasharray: 10 6;
      }

      .cls-32 {
        stroke-width: 0.738px;
      }

      .cls-33 {
        clip-path: url(#clip-path-6);
      }

      .cls-34 {
        stroke-width: 0.479px;
      }
    </style>
    <clipPath id="clip-path">
      <rect class="cls-1" x="117.818" y="326.432" width="137.147" height="37.117"/>
    </clipPath>
    <clipPath id="clip-path-2">
      <rect class="cls-1" x="420.394" y="528.663" width="121.537" height="26.813"/>
    </clipPath>
    <clipPath id="clip-path-3">
      <rect class="cls-1" x="149.09" y="249.459" width="53.299" height="48.62"/>
    </clipPath>
    <clipPath id="clip-path-4">
      <rect class="cls-1" x="278.752" y="193.258" width="47.262" height="52.783"/>
    </clipPath>
    <clipPath id="clip-path-5">
      <rect class="cls-1" x="272.811" y="254.041" width="52.817" height="60.052"/>
    </clipPath>
    <clipPath id="clip-path-6">
      <rect class="cls-1" x="556.048" y="459.602" width="41.202" height="46.002"/>
    </clipPath>
  </defs>
  <g id="_3.8" data-name="3.8">
    <g>
      <rect class="cls-2" x="253.992" y="326.385" width="6.753" height="155.315"/>
      <rect class="cls-2" x="259.037" y="554.836" width="5.627" height="6.753"/>
      <rect class="cls-2" x="319.812" y="554.836" width="270.113" height="6.753"/>
      <rect class="cls-2" x="211.204" y="474.927" width="44.456" height="6.753"/>
      <g class="cls-3">
        <g>
          <path class="cls-4" d="M325.778,327v37.117H118.852V327H325.778Z"/>
          <path class="cls-4" d="M325.778,325.87v2.249H274.047V325.87h51.731Z"/>
          <path class="cls-4" d="M222.315,325.87v2.249h51.732V325.87H222.315Z"/>
          <path class="cls-4" d="M170.584,325.87v2.249h51.731V325.87H170.584Z"/>
          <path class="cls-4" d="M118.852,325.87v2.249h51.732V325.87H118.852Z"/>
        </g>
      </g>
      <path class="cls-5" d="M186.667,349.864a1.931,1.931,0,1,1-3.84,0,2.015,2.015,0,0,1,1.141-1.8,1.252,1.252,0,0,0,.812-1.01,1.057,1.057,0,0,0-.593-.966l-.373-.153-12.049-4.543a1.075,1.075,0,0,1,.483-2.041h25.261a1.075,1.075,0,0,1,.461,2.041l-11.412,4.192"/>
      <path class="cls-5" d="M177.391,349.481h-12.38"/>
      <path class="cls-5" d="M204.4,349.481H192.022"/>
      <g>
        <g>
          <path class="cls-2" d="M215.115,301.066h-2.133v3.4H210.6v-3.4l-7.623.022v-2.26l6.462-9.144h3.548v9.144h2.133Zm-4.52-2.238V291.9h-.19l-4.836,6.927Z"/>
          <path class="cls-2" d="M220.586,303.221a1.5,1.5,0,0,1-1.563,1.5,1.476,1.476,0,0,1-1.541-1.5,1.46,1.46,0,0,1,1.541-1.479A1.478,1.478,0,0,1,220.586,303.221Z"/>
          <path class="cls-2" d="M234.926,297.075c0,4.752-2.28,7.646-6.166,7.646-3.844,0-6.145-2.852-6.145-7.646s2.3-7.644,6.145-7.644C232.646,289.431,234.926,292.324,234.926,297.075Zm-2.407,0c0-3.717-1.394-5.364-3.759-5.364-2.344,0-3.738,1.647-3.738,5.364s1.394,5.364,3.738,5.364C231.125,302.439,232.519,300.792,232.519,297.075Z"/>
        </g>
        <g>
          <path class="cls-2" d="M193.363,321.7H191.93V314.19h-4.552V321.7h-1.433v-8.876h7.418Z"/>
          <path class="cls-2" d="M202.373,318.21c0,2.131-1.357,3.64-3.221,3.64a2.817,2.817,0,0,1-2.435-1.32v4.337h-1.433V314.724h1.433v1.191a2.814,2.814,0,0,1,2.447-1.344A3.338,3.338,0,0,1,202.373,318.21Zm-1.446,0a2.093,2.093,0,0,0-2.08-2.27,2.274,2.274,0,0,0,0,4.54A2.093,2.093,0,0,0,200.927,318.21Z"/>
          <path class="cls-2" d="M210.293,314.724V321.7H208.86v-2.916l.088-2.207L205.5,321.7h-1.687v-6.973h1.433v2.916l-.089,2.193,3.449-5.109Z"/>
          <path class="cls-2" d="M216.45,321.7l-1.686-2.5-1.623,2.5h-1.725l2.5-3.589-2.358-3.384h1.712l1.547,2.333,1.5-2.333h1.724l-2.358,3.41,2.485,3.563Z"/>
          <path class="cls-2" d="M225.8,318.21a3.614,3.614,0,1,1-3.613-3.639A3.555,3.555,0,0,1,225.8,318.21Zm-5.782,0a2.171,2.171,0,1,0,2.169-2.27A2.154,2.154,0,0,0,220.022,318.21Z"/>
          <path class="cls-2" d="M235.855,321.7l-3.3-3.22v3.22h-1.433v-3.22l-3.3,3.22H225.99l3.677-3.664-3.411-3.309h1.852l3.017,3.03v-3.03h1.433v3.03l3.018-3.03h1.851l-3.41,3.309,3.677,3.664Z"/>
          <path class="cls-2" d="M244.978,314.724V321.7h-1.433V320.53a2.788,2.788,0,0,1-2.434,1.32c-1.864,0-3.221-1.509-3.221-3.64a3.337,3.337,0,0,1,3.208-3.639,2.814,2.814,0,0,1,2.447,1.344v-1.191Zm-1.42,3.486a2.142,2.142,0,0,0-2.143-2.27,2.279,2.279,0,0,0,0,4.54A2.134,2.134,0,0,0,243.558,318.21Z"/>
          <path class="cls-2" d="M252.606,314.724V321.7h-1.433v-2.523h-1.382l-1.813,2.523h-1.762l2.041-2.625a1.975,1.975,0,0,1-1.686-2.015,2.24,2.24,0,0,1,2.536-2.333ZM251.173,318v-1.978h-1.99c-.888,0-1.167.43-1.167,1.014s.355.964,1.205.964Z"/>
        </g>
      </g>
      <rect class="cls-2" x="208.973" y="138.411" width="401.728" height="15.757"/>
      <rect class="cls-2" x="585.94" y="316.827" width="24.76" height="86.089"/>
      <rect class="cls-2" x="585.94" y="502.529" width="24.76" height="59.059"/>
      <g id="Окно">
        <path class="cls-2" d="M609.792,179.912V316.529H586.848V179.912h22.944M610.7,179H585.94V317.437H610.7V179Z"/>
        <line class="cls-6" x1="604.328" y1="179.004" x2="604.328" y2="317.437"/>
        <line class="cls-6" x1="599.04" y1="179.004" x2="599.04" y2="317.437"/>
      </g>
      <rect class="cls-2" x="585.94" y="138.411" width="24.76" height="42.787"/>
      <rect class="cls-2" x="103.701" y="244.941" width="15.757" height="14.921"/>
      <rect class="cls-2" x="211.387" y="545.832" width="49.096" height="15.757"/>
      <g id="Дверь">
        <path class="cls-7" d="M50,315.488h61.941v6.226m0-59.766v-4.981"/>
        <path class="cls-8" d="M111.941,260.7c-18.927,0-60.794,9.962-60.794,54.786"/>
      </g>
      <rect class="cls-2" x="103.355" y="319.612" width="15.757" height="37.039"/>
      <rect class="cls-2" x="112.541" y="363.506" width="148.138" height="15.757"/>
      <g id="Окно-2" data-name="Окно">
        <path class="cls-2" d="M605.585,402.36V503.132h-18.8V402.36h18.8m.84-.839h-20.48v102.45h20.48V401.521Z"/>
        <line class="cls-9" x1="600.358" y1="503.971" x2="600.358" y2="401.521"/>
        <line class="cls-9" x1="596.796" y1="503.971" x2="596.796" y2="401.521"/>
      </g>
      <g id="Балкон">
        <rect class="cls-2" x="625.849" y="479.31" width="3.978" height="44.325" transform="translate(126.365 1129.31) rotate(-90)"/>
        <rect class="cls-2" x="625.849" y="381.858" width="3.978" height="44.325" transform="translate(223.818 1031.858) rotate(-90)"/>
        <rect class="cls-2" x="645.568" y="402.031" width="4.432" height="101.43"/>
      </g>
      <g>
        <g class="cls-10">
          <g>
            <path class="cls-11" d="M510.3,535.075v19.818h31.272V535.075H510.3Z"/>
            <path class="cls-11" d="M510.3,535.075v2.332h31.272v-2.332H510.3Zm-.016,0h0Z"/>
            <path class="cls-11" d="M451.311,535.075v19.818H420.039V535.075h31.272Z"/>
            <path class="cls-11" d="M451.311,535.075v2.332H420.039v-2.332h31.272Zm.043,0h0Z"/>
            <path class="cls-11" d="M504.617,551.4v-2.332H457.708V551.4Z"/>
            <path class="cls-11" d="M489.041,554.893H472.492l-12.64-2.331h41.954Z"/>
            <path class="cls-11" d="M469.791,550.23h-9.24"/>
            <path class="cls-11" d="M451.311,554.893H510.3V529.246H451.311Z"/>
            <path class="cls-11" d="M499.642,528.08h-.711"/>
            <path class="cls-11" d="M499.642,529.246V528.08"/>
            <path class="cls-11" d="M481.162,528.08h-.71"/>
            <path class="cls-11" d="M481.162,529.246V528.08"/>
            <path class="cls-11" d="M462.683,528.08h-.711"/>
            <path class="cls-11" d="M462.683,529.246V528.08"/>
          </g>
        </g>
        <g>
          <path class="cls-11" d="M389.694,535.075v19.818h31.272V535.075H389.694Z"/>
          <path class="cls-11" d="M389.694,535.075v2.332h31.272v-2.332H389.694Zm-.016,0h0Z"/>
          <path class="cls-11" d="M573.776,535.075v19.818h-32.2V535.075h32.2Z"/>
          <path class="cls-11" d="M573.776,535.075v2.332h-32.2v-2.332h32.2Zm.043,0h0Z"/>
          <path class="cls-11" d="M573.776,535.142v19.751"/>
        </g>
      </g>
      <g>
        <line class="cls-12" x1="260.616" y1="327.51" x2="260.616" y2="322.51"/>
        <line class="cls-13" x1="260.616" y1="316.614" x2="260.616" y2="256.675"/>
        <line class="cls-12" x1="260.616" y1="253.727" x2="260.616" y2="248.727"/>
      </g>
      <g>
        <path class="cls-14" d="M467.588,244.077l-14.073.02.047,4.226,14.073-.02Z"/>
        <path class="cls-14" d="M475.068,240.681l-27.983.026a.6.6,0,0,0-.631.562l0,2.247a.6.6,0,0,0,.632.561l27.983-.026a.6.6,0,0,0,.632-.562l0-2.247A.6.6,0,0,0,475.068,240.681Z"/>
        <path class="cls-14" d="M453.562,334.088l14.073-.019-.048-4.227-14.072.02Z"/>
        <path class="cls-14" d="M446.086,337.485l27.973-.026a.593.593,0,0,0,.636-.537l0-2.3a.594.594,0,0,0-.638-.536l-27.972.026a.593.593,0,0,0-.636.537l0,2.3A.593.593,0,0,0,446.086,337.485Z"/>
        <path class="cls-14" d="M474.721,263.608l-1.568-10.774a4.2,4.2,0,0,0-1.576-3.183,5.921,5.921,0,0,0-3.782-1.328h-14.5a5.923,5.923,0,0,0-3.782,1.328,4.2,4.2,0,0,0-1.576,3.183l-1.521,10.774Z"/>
        <path class="cls-14" d="M446.394,314.538l1.57,10.788a4.209,4.209,0,0,0,1.578,3.188,5.932,5.932,0,0,0,3.786,1.328h14.547a5.911,5.911,0,0,0,3.779-1.329,4.191,4.191,0,0,0,1.562-3.187l1.523-10.768Z"/>
        <path class="cls-14" d="M426.234,244.077l-14.072.02.048,4.226,14.072-.02Z"/>
        <path class="cls-14" d="M432.708,240.681l-27.984.026a.6.6,0,0,0-.631.562l0,2.247a.6.6,0,0,0,.632.561l27.984-.026a.6.6,0,0,0,.631-.562l0-2.247A.6.6,0,0,0,432.708,240.681Z"/>
        <path class="cls-14" d="M411.2,334.088l14.073-.019-.024-4.227-14.1.02Z"/>
        <path class="cls-14" d="M404.734,337.485l27.972-.026a.594.594,0,0,0,.637-.537l0-2.3a.594.594,0,0,0-.638-.536l-27.972.026a.594.594,0,0,0-.637.537l0,2.3A.594.594,0,0,0,404.734,337.485Z"/>
        <path class="cls-14" d="M432.826,263.608l-1.567-10.774a4.205,4.205,0,0,0-1.576-3.183,5.925,5.925,0,0,0-3.782-1.328H411.4a5.92,5.92,0,0,0-3.781,1.328,4.2,4.2,0,0,0-1.576,3.183l-1.521,10.774Z"/>
        <path class="cls-14" d="M404.5,314.538l1.569,10.788a4.212,4.212,0,0,0,1.578,3.188,5.937,5.937,0,0,0,3.787,1.328h14.547a5.909,5.909,0,0,0,3.778-1.329,4.189,4.189,0,0,0,1.563-3.187l1.523-10.768Z"/>
        <path class="cls-15" d="M403.988,314.557H514.647c1.653,0,2.994-.907,2.994-2.027V265.635c0-1.12-1.341-2.027-2.994-2.027H403.988c-1.654,0-2.994.907-2.994,2.027V312.53C400.994,313.65,402.334,314.557,403.988,314.557Z"/>
      </g>
      <path class="cls-14" d="M508.105,244.077l-14.073.02.047,4.226,14.073-.02Z"/>
      <path class="cls-14" d="M515.585,240.681l-27.983.026a.6.6,0,0,0-.631.562l0,2.247a.6.6,0,0,0,.632.561l27.983-.026a.6.6,0,0,0,.632-.562l0-2.247A.6.6,0,0,0,515.585,240.681Z"/>
      <path class="cls-14" d="M494.079,334.088l14.073-.019-.048-4.227-14.072.02Z"/>
      <path class="cls-14" d="M486.6,337.485l27.973-.026a.593.593,0,0,0,.636-.537l0-2.3a.594.594,0,0,0-.638-.536l-27.972.026a.593.593,0,0,0-.636.537l0,2.3A.6.6,0,0,0,486.6,337.485Z"/>
      <path class="cls-14" d="M515.237,263.608l-1.567-10.774a4.2,4.2,0,0,0-1.576-3.183,5.923,5.923,0,0,0-3.782-1.328h-14.5a5.922,5.922,0,0,0-3.781,1.328,4.2,4.2,0,0,0-1.576,3.183l-1.521,10.774Z"/>
      <path class="cls-14" d="M486.911,314.538l1.57,10.788a4.211,4.211,0,0,0,1.577,3.188,5.937,5.937,0,0,0,3.787,1.328h14.547a5.911,5.911,0,0,0,3.779-1.329,4.191,4.191,0,0,0,1.562-3.187l1.523-10.768Z"/>
      <g>
        <g>
          <path class="cls-2" d="M286.812,460.55a5.633,5.633,0,0,1-11.256-.021c0-2.788,1.858-5.048,5.3-9.631h2.809l-4.1,5.365a4.651,4.651,0,0,1,2.3-.591A4.722,4.722,0,0,1,286.812,460.55Zm-2.408,0a3.225,3.225,0,0,0-6.441.021,3.223,3.223,0,0,0,6.441-.021Z"/>
          <path class="cls-2" d="M292.135,464.436a1.494,1.494,0,0,1-1.562,1.5,1.477,1.477,0,0,1-1.542-1.5,1.46,1.46,0,0,1,1.542-1.479A1.478,1.478,0,0,1,292.135,464.436Z"/>
          <path class="cls-2" d="M306.476,458.29c0,4.752-2.281,7.646-6.167,7.646-3.843,0-6.145-2.852-6.145-7.646s2.3-7.644,6.145-7.644C304.2,450.646,306.476,453.539,306.476,458.29Zm-2.408,0c0-3.717-1.394-5.364-3.759-5.364-2.344,0-3.738,1.647-3.738,5.364s1.394,5.364,3.738,5.364C302.674,463.654,304.068,462.007,304.068,458.29Z"/>
        </g>
        <g>
          <path class="cls-2" d="M267.9,482.91l-3.753-4.235v4.235h-1.433v-8.876h1.433v4.058l3.588-4.058h1.8l-3.83,4.324,4.007,4.552Z"/>
          <path class="cls-2" d="M277.153,479.423a3.614,3.614,0,1,1-3.614-3.639A3.555,3.555,0,0,1,277.153,479.423Zm-5.782,0a2.17,2.17,0,1,0,2.168-2.27A2.153,2.153,0,0,0,271.371,479.423Z"/>
          <path class="cls-2" d="M285.732,479.423c0,2.131-1.356,3.64-3.22,3.64a2.817,2.817,0,0,1-2.435-1.32v4.337h-1.433V475.937h1.433v1.191a2.814,2.814,0,0,1,2.447-1.344A3.337,3.337,0,0,1,285.732,479.423Zm-1.445,0a2.093,2.093,0,0,0-2.08-2.27,2.274,2.274,0,0,0,0,4.54A2.093,2.093,0,0,0,284.287,479.423Z"/>
          <path class="cls-2" d="M293.652,475.937v6.973H292.22v-2.916l.088-2.207-3.449,5.123h-1.686v-6.973h1.433v2.916l-.089,2.193,3.449-5.109Z"/>
          <path class="cls-2" d="M303.5,481.566v3.158h-1.432V482.91h-5.909v1.814h-1.433v-3.158h1.217c.317-.241.52-.773.685-1.762l.621-3.867h4.983v5.629Zm-2.7,0V477.28h-2.333l-.418,2.587a4.2,4.2,0,0,1-.545,1.7Z"/>
          <path class="cls-2" d="M311.407,479.423a3.614,3.614,0,1,1-3.613-3.639A3.555,3.555,0,0,1,311.407,479.423Zm-5.782,0a2.171,2.171,0,1,0,2.169-2.27A2.154,2.154,0,0,0,305.625,479.423Z"/>
          <path class="cls-2" d="M319.987,479.423c0,2.131-1.357,3.64-3.221,3.64a2.816,2.816,0,0,1-2.434-1.32v4.337H312.9V475.937h1.433v1.191a2.814,2.814,0,0,1,2.447-1.344A3.337,3.337,0,0,1,319.987,479.423Zm-1.446,0a2.093,2.093,0,0,0-2.079-2.27,2.274,2.274,0,0,0,0,4.54A2.093,2.093,0,0,0,318.541,479.423Z"/>
        </g>
      </g>
      <g>
        <g>
          <path class="cls-2" d="M353.557,261.514V276.3h-2.386v-12l-3.358,1.373V263.33l4.667-1.816Z"/>
          <path class="cls-2" d="M368.088,272.9h-2.133v3.4h-2.387v-3.4l-7.623.022v-2.26l6.462-9.144h3.548v9.144h2.133Zm-4.52-2.238v-6.927h-.19l-4.836,6.927Z"/>
          <path class="cls-2" d="M373.559,275.051a1.5,1.5,0,0,1-1.563,1.5,1.477,1.477,0,0,1-1.542-1.5A1.461,1.461,0,0,1,372,273.572,1.479,1.479,0,0,1,373.559,275.051Z"/>
          <path class="cls-2" d="M387.413,272.9h-2.132v3.4h-2.387v-3.4l-7.623.022v-2.26l6.462-9.144h3.548v9.144h2.132Zm-4.519-2.238v-6.927h-.19l-4.836,6.927Z"/>
        </g>
        <g>
          <path class="cls-2" d="M354.611,293.526l-3.753-4.235v4.235h-1.433V284.65h1.433v4.058l3.589-4.058h1.8l-3.829,4.325,4.007,4.551Z"/>
          <path class="cls-2" d="M363.42,286.553,358.8,296.7H357.27l1.838-4.057-2.751-6.086h1.534l1.978,4.539,2.016-4.539Z"/>
          <path class="cls-2" d="M369.058,293.526l-1.687-2.5-1.623,2.5h-1.724l2.5-3.588-2.359-3.385h1.712l1.547,2.333,1.5-2.333h1.725l-2.359,3.41,2.486,3.563Z"/>
          <path class="cls-2" d="M378.475,286.553v6.973h-1.433v-2.878h-3.7v2.878h-1.433v-6.973h1.433v2.738h3.7v-2.738Z"/>
          <path class="cls-2" d="M385.989,286.553v6.973h-1.433V291h-1.382l-1.813,2.523H379.6l2.042-2.625a1.975,1.975,0,0,1-1.687-2.015,2.241,2.241,0,0,1,2.536-2.333Zm-1.433,3.271v-1.978h-1.991c-.887,0-1.166.43-1.166,1.014s.355.964,1.2.964Z"/>
        </g>
      </g>
      <rect class="cls-2" x="321.52" y="145.184" width="6.753" height="48.395"/>
      <rect class="cls-2" x="111.644" y="244.941" width="39.93" height="6.753"/>
      <g class="cls-16">
        <g>
          <path class="cls-17" d="M150.422,250.082h4.664v48m47.3-48h-4"/>
          <path class="cls-17" d="M200.344,249.579c0,14.748-8.238,47.374-45.305,47.374"/>
        </g>
      </g>
      <rect class="cls-2" x="201.681" y="244.941" width="123.215" height="6.753"/>
      <rect class="cls-2" x="321.52" y="243.1" width="6.753" height="8.594"/>
      <rect class="cls-2" x="208.973" y="145.184" width="6.753" height="103.543"/>
      <g class="cls-18">
        <g>
          <path class="cls-19" d="M278.752,240.1h46.656v4.619m0-47.5v-3.959"/>
          <path class="cls-19" d="M325.9,195.283c-14.337,0-46.05,8.158-46.05,44.866"/>
        </g>
      </g>
      <g>
        <path class="cls-20" d="M426.614,186.2H456.85V158.024H426.614Z"/>
        <path class="cls-20" d="M434.245,169.659a4.245,4.245,0,0,0,2.3-.672,4.033,4.033,0,0,0,1.522-1.791,3.855,3.855,0,0,0,.235-2.305,3.946,3.946,0,0,0-1.131-2.043,4.174,4.174,0,0,0-2.116-1.091,4.274,4.274,0,0,0-2.389.227,4.111,4.111,0,0,0-1.855,1.469,3.886,3.886,0,0,0,.514,5.037,4.214,4.214,0,0,0,2.923,1.169Z"/>
        <path class="cls-20" d="M434.245,183.559a5.458,5.458,0,0,0,2.955-.865,5.179,5.179,0,0,0,1.958-2.3,4.974,4.974,0,0,0,.3-2.966,5.088,5.088,0,0,0-1.456-2.628,5.382,5.382,0,0,0-2.722-1.4,5.494,5.494,0,0,0-3.073.292,5.279,5.279,0,0,0-2.386,1.89,5.008,5.008,0,0,0-.9,2.852,5.064,5.064,0,0,0,1.564,3.623,5.44,5.44,0,0,0,3.753,1.509Z"/>
        <path class="cls-20" d="M449.637,170.738a5.458,5.458,0,0,0,2.955-.865,5.179,5.179,0,0,0,1.958-2.3,4.966,4.966,0,0,0,.3-2.966,5.088,5.088,0,0,0-1.456-2.628,5.382,5.382,0,0,0-2.722-1.4,5.494,5.494,0,0,0-3.073.292,5.279,5.279,0,0,0-2.386,1.89,5.01,5.01,0,0,0-.9,2.852,5.068,5.068,0,0,0,1.564,3.623,5.44,5.44,0,0,0,3.753,1.509Z"/>
        <path class="cls-20" d="M449.637,182.417a4.237,4.237,0,0,0,2.3-.673,4.025,4.025,0,0,0,1.522-1.79,3.855,3.855,0,0,0,.235-2.305,3.946,3.946,0,0,0-1.131-2.043,4.174,4.174,0,0,0-2.116-1.091,4.274,4.274,0,0,0-2.389.227,4.111,4.111,0,0,0-1.855,1.469,3.869,3.869,0,0,0-.381,3.743,3.976,3.976,0,0,0,.895,1.294,4.137,4.137,0,0,0,1.341.865,4.256,4.256,0,0,0,1.582.3Z"/>
        <path class="cls-21" d="M459.978,155.005v63.238a1.135,1.135,0,0,1-.362.826,1.274,1.274,0,0,1-.874.342H423.679a1.274,1.274,0,0,1-.874-.342,1.135,1.135,0,0,1-.362-.826V155.005"/>
        <path class="cls-20" d="M422.443,191h37.535L460,154.17H422.443Z"/>
      </g>
      <path class="cls-22" d="M570.394,190.979H533.462V153.4h36.932Z"/>
      <path class="cls-23" d="M532.993,190.979h37.4v-1.958H533.462"/>
      <g>
        <g>
          <path class="cls-24" d="M543.571,175.274l3.073-4.013"/>
          <path class="cls-24" d="M546.644,175.274l-3.073-4.013"/>
          <path class="cls-24" d="M547.058,173.241h-4.12"/>
        </g>
        <g>
          <path class="cls-24" d="M549.922,175.274,553,171.261"/>
          <path class="cls-24" d="M553,175.274l-3.073-4.013"/>
          <path class="cls-24" d="M553.408,173.241h-4.12"/>
        </g>
        <g>
          <path class="cls-24" d="M556.272,175.274l3.073-4.013"/>
          <path class="cls-24" d="M559.345,175.274l-3.073-4.013"/>
          <path class="cls-24" d="M559.759,173.241h-4.12"/>
        </g>
      </g>
      <g>
        <line class="cls-25" x1="422.496" y1="191.043" x2="386.356" y2="190.979"/>
        <line class="cls-25" x1="386.487" y1="189.771" x2="422.411" y2="189.835"/>
        <path class="cls-26" d="M381.849,162.409V185.53c0,1.128-.665,2.042-1.484,2.042H355.2c-.82,0-1.484-.914-1.484-2.042V162.41c0-1.128.665-2.043,1.485-2.043h25.168C381.184,160.367,381.849,161.281,381.849,162.409Z"/>
        <path class="cls-26" d="M375.149,167.436V177.1a2.892,2.892,0,0,1-2.961,2.819H359.353a2.892,2.892,0,0,1-2.961-2.819v-9.666a2.892,2.892,0,0,1,2.961-2.818h12.835A2.892,2.892,0,0,1,375.149,167.436Z"/>
        <path class="cls-26" d="M365.412,169.952a1.8,1.8,0,0,1,.967.279,1.681,1.681,0,0,1,.642.744,1.585,1.585,0,0,1,.1.958,1.63,1.63,0,0,1-.477.849,1.768,1.768,0,0,1-.892.454,1.817,1.817,0,0,1-1.006-.095,1.725,1.725,0,0,1-.782-.61,1.6,1.6,0,0,1,.217-2.093A1.789,1.789,0,0,1,365.412,169.952Z"/>
        <path class="cls-27" d="M364.431,163.266a7.5,7.5,0,0,0,2.679,2.1v1.9a1.377,1.377,0,0,1-.394.932,1.511,1.511,0,0,1-.945.448,1.342,1.342,0,0,1-.551-.089,1.279,1.279,0,0,1-.459-.3,1.212,1.212,0,0,1-.281-.46,1.157,1.157,0,0,1-.049-.529Z"/>
        <path class="cls-27" d="M364.14,162.143l.784-.547a.98.98,0,0,1,.665-.195.963.963,0,0,1,.624.294c.54.7,2.386,3.084,1.2,3.913s-3.013-1.575-3.484-2.271a.853.853,0,0,1-.146-.637A.874.874,0,0,1,364.14,162.143Z"/>
        <polyline class="cls-28" points="386.422 154.17 386.422 190.993 325.17 190.993"/>
      </g>
      <line class="cls-25" x1="532.792" y1="191.043" x2="459.512" y2="190.979"/>
      <line class="cls-25" x1="459.978" y1="189.771" x2="533.566" y2="189.834"/>
      <line class="cls-25" x1="496.49" y1="191.012" x2="496.49" y2="153.281"/>
      <line class="cls-25" x1="349.053" y1="190.94" x2="349.053" y2="153.281"/>
      <line class="cls-25" x1="325.712" y1="189.771" x2="349.082" y2="189.834"/>
      <g class="cls-29">
        <g>
          <path class="cls-30" d="M324.951,255.542V260.8h-52.14m52.14,53.3v-4.5"/>
          <path class="cls-30" d="M325.5,311.789c-16.021,0-51.462-9.281-51.462-51.045"/>
        </g>
      </g>
      <rect class="cls-2" x="321.52" y="314.004" width="6.753" height="246.068"/>
      <rect class="cls-2" x="321.52" y="243.1" width="6.753" height="16.472"/>
      <g>
        <g>
          <path class="cls-2" d="M384.986,451.145v14.783H382.6v-12l-3.358,1.373v-2.345l4.667-1.816Z"/>
          <path class="cls-2" d="M398.8,463.646v2.282H387.585v-1.711l4.287-3.759c3.316-2.894,4.16-3.632,4.16-4.941,0-1.288-.992-2.345-2.808-2.345a2.955,2.955,0,0,0-3.1,2.724h-2.407a5.357,5.357,0,0,1,5.617-5c3.147,0,5.111,2.027,5.111,4.519,0,2.238-1.563,3.568-4.583,6.208l-2.323,2.007-.042.02Z"/>
          <path class="cls-2" d="M404.5,464.682a1.494,1.494,0,0,1-1.562,1.5,1.477,1.477,0,0,1-1.542-1.5,1.46,1.46,0,0,1,1.542-1.479A1.477,1.477,0,0,1,404.5,464.682Z"/>
          <path class="cls-2" d="M418.357,462.527h-2.133v3.4h-2.386v-3.4l-7.624.022v-2.26l6.462-9.144h3.548v9.144h2.133Zm-4.519-2.238v-6.927h-.19l-4.836,6.927Z"/>
        </g>
        <g>
          <path class="cls-2" d="M356.723,483.157l-3.563-4.222v4.222h-1.433v-4.222l-3.563,4.222h-1.775l3.791-4.552-3.626-4.324h1.762l3.411,4.032v-4.032h1.433v4.032l3.411-4.032h1.762l-3.626,4.324,3.8,4.552Z"/>
          <path class="cls-2" d="M366.2,476.184v6.973h-1.432v-2.916l.088-2.207-3.449,5.123h-1.686v-6.973h1.433V479.1l-.089,2.193,3.449-5.109Z"/>
          <path class="cls-2" d="M374.539,476.184v6.973h-1.433v-5.63H370.8l-.457,2.916c-.342,2.08-1.116,2.867-2.308,2.867a4.52,4.52,0,0,1-.71-.077v-1.294c.14.013.279.039.419.039.672,0,.963-.368,1.179-1.662l.659-4.132Z"/>
          <path class="cls-2" d="M383.055,476.184v6.973h-1.433V481.99a2.788,2.788,0,0,1-2.434,1.32c-1.864,0-3.221-1.509-3.221-3.64a3.337,3.337,0,0,1,3.208-3.639,2.814,2.814,0,0,1,2.447,1.344v-1.191Zm-1.42,3.486a2.142,2.142,0,0,0-2.143-2.27,2.278,2.278,0,0,0,0,4.539A2.133,2.133,0,0,0,381.635,479.67Z"/>
          <path class="cls-2" d="M390.684,476.184v6.973h-1.433v-2.523h-1.382l-1.814,2.523h-1.762l2.041-2.625a1.975,1.975,0,0,1-1.686-2.015,2.24,2.24,0,0,1,2.536-2.333Zm-1.433,3.271v-1.978H387.26c-.888,0-1.167.43-1.167,1.014s.355.964,1.2.964Z"/>
          <path class="cls-2" d="M400.872,483.157l-3.284-3.22v3.22h-1.433v-6.973h1.433V479.2l3.017-3.017h1.839l-3.411,3.309,3.69,3.664Z"/>
          <path class="cls-2" d="M410.111,479.67a3.614,3.614,0,1,1-3.614-3.639A3.555,3.555,0,0,1,410.111,479.67Zm-5.782,0a2.171,2.171,0,1,0,2.168-2.27A2.153,2.153,0,0,0,404.329,479.67Z"/>
          <path class="cls-2" d="M419.033,476.184v6.973H417.6v-2.916l.1-2.422-2.4,3.41h-.038l-2.4-3.41.1,2.422v2.916h-1.433v-6.973h1.687l2.054,2.865,2.067-2.865Z"/>
          <path class="cls-2" d="M427.27,476.184v6.973h-1.433v-2.878h-3.7v2.878H420.7v-6.973h1.433v2.738h3.7v-2.738Z"/>
          <path class="cls-2" d="M435.786,476.184v6.973h-1.433V481.99a2.788,2.788,0,0,1-2.435,1.32c-1.863,0-3.22-1.509-3.22-3.64a3.337,3.337,0,0,1,3.208-3.639,2.814,2.814,0,0,1,2.447,1.344v-1.191Zm-1.42,3.486a2.142,2.142,0,0,0-2.143-2.27,2.278,2.278,0,0,0,0,4.539A2.133,2.133,0,0,0,434.366,479.67Z"/>
          <path class="cls-2" d="M442.907,477.527h-2.27v5.63h-1.432v-5.63h-2.283v-1.343h5.985Z"/>
          <path class="cls-2" d="M450.752,476.184v6.973h-1.433V481.99a2.788,2.788,0,0,1-2.434,1.32c-1.864,0-3.221-1.509-3.221-3.64a3.337,3.337,0,0,1,3.208-3.639,2.814,2.814,0,0,1,2.447,1.344v-1.191Zm-1.42,3.486a2.142,2.142,0,0,0-2.143-2.27,2.278,2.278,0,0,0,0,4.539A2.133,2.133,0,0,0,449.332,479.67Z"/>
        </g>
      </g>
      <rect class="cls-2" x="112.359" y="331.112" width="6.753" height="48.151"/>
      <line class="cls-31" x1="325.772" y1="370.799" x2="372.201" y2="370.799"/>
      <path class="cls-32" d="M482.718,375.537V416.4a2.771,2.771,0,0,0,2.77,2.771h40.863m-43.633-43.634V352.681a2.77,2.77,0,0,1,2.77-2.77h63.719a2.771,2.771,0,0,1,2.771,2.77V416.4a2.771,2.771,0,0,1-2.771,2.771H526.351M483.41,376.23h40.864a2.77,2.77,0,0,1,2.77,2.77v40.863"/>
      <path class="cls-32" d="M431.466,375.537V416.4a2.771,2.771,0,0,0,2.77,2.771h45.711a2.771,2.771,0,0,0,2.771-2.771V375.537m-51.252,0V352.681a2.77,2.77,0,0,1,2.77-2.77h45.711a2.771,2.771,0,0,1,2.771,2.77v22.856m-50.56.693H483.41"/>
      <path class="cls-32" d="M380.213,412.937V416.4a2.771,2.771,0,0,0,2.771,2.771H428.7a2.771,2.771,0,0,0,2.771-2.771V375.537m-55.408-13.852v-9a2.77,2.77,0,0,1,2.77-2.77H428.7a2.771,2.771,0,0,1,2.771,2.77v22.856m-18.7-.693h19.393"/>
      <path class="cls-32" d="M385.754,364.455v-.692a2.771,2.771,0,0,0-2.77-2.771h-8.311a2.771,2.771,0,0,0-2.771,2.771v45.711a2.771,2.771,0,0,0,2.771,2.771h8.311a2.771,2.771,0,0,0,2.77-2.771V383.848"/>
      <path class="cls-32" d="M404.307,389.543c.811-.489,1.861-1.178,2.572-1.6s.208-1.114-.863-.5-1.478,1.214-2.058,1.465c-2.071.84-3.746-.4-5.692-.911s-7.891-2.488-9.83-3.114a15.657,15.657,0,0,0-5.545-1.165,8.357,8.357,0,0,1-1.713-.156c-.6-.1-.746-.431-.419-.89a13.67,13.67,0,0,0,1.867-6.142,32.738,32.738,0,0,1,3.113-8.784l.255,1.874c.137,2.455.858,1.853.825,1.156l-.179-1.091c-.142-1.1-.344-2.2-.459-3.35a14.37,14.37,0,0,1-.115-1.794c.007-.551.388-.671.764-.516a7.653,7.653,0,0,1,1.516.876,14.083,14.083,0,0,0,4.731,1.929,136.5,136.5,0,0,1,13.874,4.185,13.218,13.218,0,0,0,5.026.988,8.556,8.556,0,0,1,1.749.147c.644.124.747.431.426.986s-1.087,3.445-1.695,4.389a25.276,25.276,0,0,0-1.3-2.6c-.556-.6-1.146-.385-.627.224a8.054,8.054,0,0,1,1.439,3.914,7.97,7.97,0,0,1-.715,4.093,29.015,29.015,0,0,1-1.45,3.482,9.272,9.272,0,0,0-.938,3.994c-.022,1.221-.258,1.362-1.311.816S405.3,390.145,404.307,389.543Z"/>
      <path class="cls-32" d="M541.589,474.578h7.618a2.771,2.771,0,0,0,2.771-2.77V421.941a2.771,2.771,0,0,0-2.771-2.77H485.488a2.77,2.77,0,0,0-2.77,2.77v45.711a2.771,2.771,0,0,0,2.77,2.771h4.848"/>
      <path class="cls-32" d="M516.655,464.882H492.414a2.77,2.77,0,0,0-2.77,2.77v8.312a2.77,2.77,0,0,0,2.77,2.77h45.712a2.77,2.77,0,0,0,2.77-2.77v-8.312a2.77,2.77,0,0,0-2.77-2.77h-.693"/>
      <path class="cls-32" d="M532.083,448.012a68.981,68.981,0,0,1,2.792,9.9,14.079,14.079,0,0,0,1.929,4.731,7.618,7.618,0,0,1,.876,1.515c.155.377.034.757-.516.764a14.565,14.565,0,0,1-1.795-.114c-1.145-.116-2.249-.318-3.349-.46l-1.09-.179c-.7-.032-1.3.688,1.153.826l1.876.254a32.745,32.745,0,0,1-8.785,3.113,13.69,13.69,0,0,0-6.142,1.867c-.458.327-.792.178-.889-.419a8.345,8.345,0,0,1-.157-1.713,15.636,15.636,0,0,0-1.165-5.545c-.626-1.939-2.607-7.883-3.114-9.829s-1.75-3.622-.911-5.692c.252-.581.849-.988,1.465-2.059s-.074-1.573-.5-.862-1.111,1.761-1.6,2.571c-.6-.989-1.362-2.2-1.908-3.251s-.4-1.289.816-1.311a10.548,10.548,0,0,0,4.256-1.038"/>
      <path class="cls-32" d="M512.163,428.678c.487-.81,1.177-1.861,1.6-2.571s1.113-.208.5.863-1.213,1.477-1.464,2.058c-.841,2.071.4,3.746.91,5.692s2.489,7.89,3.115,9.829a15.684,15.684,0,0,1,1.165,5.545,8.208,8.208,0,0,0,.157,1.713c.1.6.431.747.889.419a13.682,13.682,0,0,1,6.142-1.867,32.738,32.738,0,0,0,8.784-3.113l-1.875-.254c-2.454-.138-1.853-.858-1.155-.826l1.09.179c1.1.142,2.2.344,3.351.46a14.549,14.549,0,0,0,1.794.114c.551-.007.67-.387.515-.764a7.642,7.642,0,0,0-.875-1.515,14.028,14.028,0,0,1-1.928-4.731,136.526,136.526,0,0,0-4.187-13.875,13.212,13.212,0,0,1-.987-5.025,8.637,8.637,0,0,0-.147-1.75c-.125-.643-.431-.746-.986-.425s-3.445,1.087-4.39,1.695a24.983,24.983,0,0,1,2.6,1.3c.6.557.384,1.147-.224.627a8.018,8.018,0,0,0-8.008-.724,29.007,29.007,0,0,0-3.481,1.451,9.287,9.287,0,0,1-3.994.938c-1.221.021-1.363.258-.817,1.31S511.56,427.689,512.163,428.678Z"/>
      <line class="cls-31" x1="551.978" y1="370.799" x2="600.571" y2="370.799"/>
      <g>
        <g>
          <path class="cls-2" d="M623,450.36c0,3.539-1.744,5.695-4.714,5.695-2.938,0-4.7-2.123-4.7-5.695s1.76-5.695,4.7-5.695C621.258,444.665,623,446.82,623,450.36Zm-1.841,0c0-2.769-1.065-4-2.873-4-1.792,0-2.858,1.227-2.858,4s1.066,4,2.858,4C620.1,454.355,621.161,453.129,621.161,450.36Z"/>
          <path class="cls-2" d="M626.94,454.938a1.129,1.129,0,0,1-1.2,1.117,1.116,1.116,0,0,1-1.179-1.117,1.1,1.1,0,0,1,1.179-1.1A1.117,1.117,0,0,1,626.94,454.938Z"/>
          <path class="cls-2" d="M636.286,448.692c0,2.078-1.42,3.76-4.052,7.174h-2.147l3.132-4a3.622,3.622,0,0,1-1.76.441,3.567,3.567,0,0,1-3.777-3.634,4.312,4.312,0,0,1,8.6.015Zm-1.84-.031a2.467,2.467,0,0,0-4.924.016,2.47,2.47,0,0,0,4.924-.016Z"/>
        </g>
        <g>
          <path class="cls-2" d="M615.16,463.991a8.7,8.7,0,0,0,1.318,4.442l-.834.481a8.462,8.462,0,0,1,0-9.845l.834.481A8.693,8.693,0,0,0,615.16,463.991Z"/>
          <path class="cls-2" d="M623.423,463.143c0,2.122-1.046,3.414-2.829,3.414-1.764,0-2.82-1.274-2.82-3.414s1.056-3.414,2.82-3.414C622.377,459.729,623.423,461.021,623.423,463.143Zm-1.105,0c0-1.66-.639-2.395-1.724-2.395s-1.715.735-1.715,2.395.639,2.4,1.715,2.4S622.318,464.8,622.318,463.143Z"/>
          <path class="cls-2" d="M625.784,465.887a.678.678,0,0,1-.717.67.669.669,0,0,1-.707-.67.661.661,0,0,1,.707-.66A.67.67,0,0,1,625.784,465.887Z"/>
          <path class="cls-2" d="M632.033,464.566c0,1.246-1.008,1.991-2.481,1.991a2.4,2.4,0,0,1-2.664-2.084h1.1a1.385,1.385,0,0,0,1.55,1.075c.9,0,1.386-.425,1.386-1.075,0-.557-.339-.944-1.289-.944h-.92v-.942h.727c.823,0,1.269-.265,1.269-.84,0-.594-.465-1.009-1.279-1.009a1.223,1.223,0,0,0-1.357.991h-1.1a2.281,2.281,0,0,1,2.49-2c1.357,0,2.354.783,2.354,1.886a1.426,1.426,0,0,1-.881,1.358A1.6,1.6,0,0,1,632.033,464.566Z"/>
          <path class="cls-2" d="M634.055,459.069a8.462,8.462,0,0,1,0,9.845l-.833-.481a8.148,8.148,0,0,0,0-8.883Z"/>
        </g>
      </g>
      <g class="cls-33">
        <g>
          <path class="cls-34" d="M556.048,500.429h40.674v4.025m0-41.4V459.6"/>
          <path class="cls-34" d="M597.148,461.367c-12.5,0-40.146,7.109-40.146,39.1"/>
        </g>
      </g>
      <line class="cls-31" x1="212.148" y1="561.589" x2="211.748" y2="474.816"/>
    </g>
  </g>
</svg>
